<svg xmlns="http://www.w3.org/2000/svg" xmlns:xlink="http://www.w3.org/1999/xlink" preserveAspectRatio="xMidYMid" width="80" height="80" viewBox="0 0 80 80">
  <defs>
    <style>
      .cls-1 {
        fill: #fff;
        fill-rule: evenodd;
      }
    </style>
  </defs>
  <path d="M54.355,50.129 L40.370,50.129 L40.370,53.274 L46.114,53.274 C46.599,53.274 46.992,53.659 46.992,54.135 C46.992,54.610 46.599,54.995 46.114,54.995 L32.870,54.995 C32.385,54.995 31.992,54.610 31.992,54.135 C31.992,53.659 32.385,53.274 32.870,53.274 L38.614,53.274 L38.614,50.129 L24.629,50.129 C23.177,50.129 21.995,48.972 21.995,47.549 L21.995,27.582 C21.995,26.159 23.177,25.001 24.629,25.001 L54.355,25.001 C55.808,25.001 56.989,26.159 56.989,27.582 L56.989,47.549 C56.989,48.972 55.808,50.129 54.355,50.129 ZM55.233,27.582 C55.233,27.107 54.840,26.721 54.355,26.721 L24.629,26.721 C24.145,26.721 23.751,27.107 23.751,27.582 L23.751,47.549 C23.751,48.023 24.145,48.409 24.629,48.409 L54.355,48.409 C54.840,48.409 55.233,48.023 55.233,47.549 L55.233,27.582 ZM48.334,46.664 L30.651,46.664 C30.166,46.664 29.773,46.279 29.773,45.804 L29.773,28.478 C29.773,28.003 30.166,27.617 30.651,27.617 C31.136,27.617 31.529,28.003 31.529,28.478 L31.529,44.943 L48.334,44.943 C48.819,44.943 49.212,45.328 49.212,45.804 C49.212,46.279 48.819,46.664 48.334,46.664 ZM48.334,44.354 L33.009,44.354 C32.523,44.354 32.131,43.969 32.131,43.494 L32.131,39.458 C32.131,39.123 32.329,38.818 32.641,38.677 L37.033,36.691 C37.179,36.625 37.342,36.600 37.499,36.617 L41.972,37.112 L47.738,31.896 C47.994,31.664 48.368,31.603 48.686,31.740 C49.005,31.877 49.212,32.186 49.212,32.528 L49.212,43.494 C49.212,43.969 48.819,44.354 48.334,44.354 ZM47.456,34.492 L42.869,38.643 C42.682,38.812 42.435,38.896 42.175,38.865 L37.546,38.353 L33.887,40.008 L33.887,42.633 L47.456,42.633 L47.456,34.492 Z" class="cls-1"/>
</svg>
