<svg xmlns="http://www.w3.org/2000/svg" xmlns:xlink="http://www.w3.org/1999/xlink" preserveAspectRatio="xMidYMid" width="16" height="18" viewBox="0 0 16 18">
  <defs>
    <style>
      .cls-1 {
        fill: #b9bec2;
        fill-rule: evenodd;
      }
    </style>
  </defs>
  <path d="M15.376,14.475 C15.283,14.506 15.188,14.520 15.093,14.520 C14.810,14.520 14.537,14.389 14.362,14.154 C14.281,14.048 12.242,11.448 7.576,11.448 C7.573,11.448 7.570,11.447 7.568,11.447 C7.562,11.447 7.558,11.448 7.553,11.448 L6.573,11.448 C6.903,13.845 8.444,14.958 8.462,14.970 C8.683,15.124 8.825,15.367 8.847,15.634 C8.869,15.901 8.771,16.164 8.578,16.352 L7.141,17.752 C6.966,17.922 6.736,18.009 6.505,18.009 C6.317,18.009 6.128,17.951 5.967,17.834 C3.380,15.944 2.689,12.585 2.510,11.207 C1.049,10.676 -0.002,9.295 -0.002,7.664 L-0.002,6.847 C-0.002,4.760 1.708,3.062 3.810,3.062 L7.523,3.062 C7.536,3.062 7.544,3.066 7.557,3.066 C7.563,3.066 7.569,3.062 7.576,3.062 C12.294,3.062 14.342,0.383 14.362,0.356 C14.595,0.043 15.007,-0.084 15.376,0.035 C15.749,0.157 16.000,0.502 16.000,0.891 L16.000,13.619 C16.000,14.009 15.749,14.353 15.376,14.475 ZM6.464,15.886 L6.629,15.726 C5.917,14.952 4.957,13.545 4.735,11.448 L4.390,11.448 C4.593,12.597 5.115,14.545 6.464,15.886 ZM6.668,6.847 C6.668,6.004 6.661,5.334 6.654,4.865 L3.810,4.865 C2.709,4.865 1.813,5.754 1.813,6.847 L1.813,7.664 C1.813,8.757 2.709,9.646 3.810,9.646 L6.661,9.646 C6.665,9.162 6.668,8.487 6.668,7.664 L6.668,6.847 ZM14.185,2.924 C12.991,3.758 11.120,4.663 8.483,4.835 L8.483,6.847 L8.483,7.664 L8.483,9.676 C11.120,9.848 12.991,10.753 14.185,11.587 L14.185,2.924 Z" class="cls-1"/>
</svg>
