<svg xmlns="http://www.w3.org/2000/svg" xmlns:xlink="http://www.w3.org/1999/xlink" preserveAspectRatio="xMidYMid" width="80" height="80" viewBox="0 0 80 80">
  <defs>
    <style>
      .cls-1 {
        fill: #fff;
        fill-rule: evenodd;
      }
    </style>
  </defs>
  <path d="M52.216,39.775 C51.037,39.775 49.981,39.230 49.287,38.379 C48.592,39.230 47.537,39.775 46.358,39.775 C45.180,39.775 44.124,39.230 43.429,38.379 C42.734,39.230 41.679,39.775 40.501,39.775 C39.322,39.775 38.267,39.230 37.572,38.379 C36.876,39.230 35.820,39.775 34.641,39.775 C33.462,39.775 32.408,39.230 31.713,38.379 C31.018,39.230 29.963,39.775 28.784,39.775 C26.696,39.775 24.997,38.068 24.997,35.969 L24.997,31.439 C24.997,31.331 25.017,31.225 25.056,31.125 L27.219,25.555 C27.347,25.223 27.665,25.006 28.019,25.006 L52.980,25.006 C53.334,25.006 53.651,25.223 53.780,25.555 L55.944,31.125 C55.983,31.225 56.003,31.331 56.003,31.439 L56.003,35.969 C56.003,38.068 54.304,39.775 52.216,39.775 ZM54.286,31.601 L52.394,26.731 L28.606,26.731 L26.714,31.601 L26.714,35.969 C26.714,37.116 27.643,38.049 28.784,38.049 C29.926,38.049 30.855,37.116 30.855,35.969 C30.855,35.493 31.239,35.106 31.713,35.106 C32.188,35.106 32.572,35.493 32.572,35.969 C32.572,37.116 33.500,38.049 34.641,38.049 C35.783,38.049 36.713,37.116 36.713,35.969 C36.713,35.493 37.097,35.106 37.572,35.106 C38.046,35.106 38.430,35.493 38.430,35.969 C38.430,37.116 39.359,38.049 40.501,38.049 C41.642,38.049 42.571,37.116 42.571,35.969 C42.571,35.493 42.955,35.106 43.429,35.106 C43.904,35.106 44.287,35.493 44.287,35.969 C44.287,37.116 45.216,38.049 46.358,38.049 C47.499,38.049 48.428,37.116 48.428,35.969 C48.428,35.493 48.812,35.106 49.287,35.106 C49.761,35.106 50.145,35.493 50.145,35.969 C50.145,37.116 51.074,38.049 52.216,38.049 C53.357,38.049 54.286,37.116 54.286,35.969 L54.286,31.601 ZM41.176,49.491 C40.701,49.491 40.317,49.106 40.317,48.629 L40.317,42.582 C40.317,42.105 40.701,41.719 41.176,41.719 L49.016,41.719 C49.490,41.719 49.874,42.105 49.874,42.582 L49.874,48.629 C49.874,49.106 49.490,49.491 49.016,49.491 L41.176,49.491 ZM48.157,43.445 L42.034,43.445 L42.034,47.766 L48.157,47.766 L48.157,43.445 ZM28.086,42.036 C28.560,42.036 28.944,42.422 28.944,42.898 L28.944,52.591 C28.944,52.964 29.247,53.268 29.618,53.268 L31.125,53.268 L31.125,42.582 C31.125,42.105 31.509,41.719 31.983,41.719 L38.608,41.719 C39.082,41.719 39.466,42.105 39.466,42.582 L39.466,53.268 L51.382,53.268 C51.754,53.268 52.057,52.964 52.057,52.591 L52.057,42.898 C52.057,42.422 52.440,42.036 52.915,42.036 C53.390,42.036 53.773,42.422 53.773,42.898 L53.773,52.591 C53.773,53.916 52.700,54.994 51.382,54.994 L29.618,54.994 C28.299,54.994 27.227,53.916 27.227,52.591 L27.227,42.898 C27.227,42.422 27.611,42.036 28.086,42.036 ZM32.842,53.083 L37.749,53.083 L37.749,43.445 L32.842,43.445 L32.842,53.083 Z" class="cls-1"/>
</svg>
