<svg xmlns="http://www.w3.org/2000/svg" xmlns:xlink="http://www.w3.org/1999/xlink" preserveAspectRatio="xMidYMid" width="12" height="16" viewBox="0 0 12 16">
  <defs>
    <style>
      .cls-1 {
        fill: #6d6f72;
        fill-rule: evenodd;
      }
    </style>
  </defs>
  <path d="M11.284,4.307 L10.962,3.957 C10.961,3.956 10.961,3.954 10.960,3.953 C10.959,3.952 10.957,3.951 10.956,3.950 L9.258,2.106 C9.257,2.105 9.257,2.104 9.257,2.104 C9.256,2.103 9.256,2.103 9.256,2.103 L8.931,1.751 C8.014,0.755 6.404,0.755 5.487,1.751 L1.042,6.578 C1.028,6.593 1.023,6.612 1.012,6.627 C0.991,6.656 0.972,6.684 0.957,6.717 C0.941,6.750 0.931,6.784 0.923,6.819 C0.918,6.839 0.907,6.854 0.904,6.874 L0.004,13.401 C-0.019,13.567 0.031,13.735 0.141,13.853 C0.233,13.954 0.356,14.008 0.485,14.008 C0.509,14.008 0.534,14.006 0.557,14.002 L6.567,13.023 C6.586,13.020 6.600,13.008 6.617,13.003 C6.650,12.994 6.681,12.983 6.712,12.966 C6.742,12.949 6.768,12.929 6.793,12.907 C6.808,12.895 6.826,12.889 6.839,12.874 L11.284,8.048 C11.743,7.550 11.996,6.886 11.996,6.177 C11.996,5.469 11.743,4.805 11.284,4.307 ZM2.538,12.610 L1.285,11.251 L1.729,8.034 C1.780,8.109 1.831,8.184 1.893,8.251 C2.143,8.523 2.488,8.667 2.887,8.667 L2.888,8.667 C3.008,8.667 3.133,8.642 3.257,8.616 C3.154,9.208 3.271,9.747 3.597,10.100 C3.848,10.373 4.198,10.515 4.595,10.515 C4.710,10.515 4.832,10.492 4.953,10.468 C4.853,11.045 4.960,11.582 5.299,11.949 C5.361,12.017 5.431,12.072 5.500,12.128 L2.538,12.610 ZM4.286,9.352 C4.186,9.243 4.160,9.020 4.218,8.755 C4.296,8.396 4.512,8.004 4.811,7.679 L8.912,3.226 L9.926,4.328 L5.826,8.781 C5.194,9.466 4.489,9.573 4.286,9.352 ZM6.176,2.499 C6.717,1.910 7.668,1.908 8.219,2.482 L4.122,6.931 C3.743,7.343 3.259,7.610 2.888,7.610 C2.888,7.610 2.888,7.610 2.887,7.610 C2.793,7.610 2.663,7.591 2.582,7.503 C2.444,7.353 2.368,7.154 2.368,6.944 C2.368,6.745 2.437,6.560 2.563,6.423 L3.395,5.520 C3.397,5.519 3.397,5.516 3.399,5.515 L6.176,2.499 ZM1.106,12.552 L1.339,12.805 L1.064,12.850 L1.106,12.552 ZM10.595,7.300 L7.815,10.319 L7.814,10.319 L6.982,11.222 C6.855,11.360 6.665,11.446 6.494,11.434 C6.304,11.432 6.124,11.349 5.988,11.201 C5.888,11.093 5.863,10.871 5.921,10.604 C5.999,10.246 6.216,9.853 6.515,9.529 L10.613,5.078 C10.876,5.373 11.022,5.762 11.022,6.177 C11.022,6.603 10.870,7.002 10.595,7.300 Z" class="cls-1"/>
</svg>
