<svg xmlns="http://www.w3.org/2000/svg" xmlns:xlink="http://www.w3.org/1999/xlink" preserveAspectRatio="xMidYMid" width="80" height="80" viewBox="0 0 80 80">
  <defs>
    <style>
      .cls-1 {
        fill: #fff;
        fill-rule: evenodd;
      }
    </style>
  </defs>
  <path d="M54.553,46.329 C54.425,46.383 54.293,46.408 54.163,46.408 C53.772,46.408 53.401,46.179 53.239,45.797 C53.024,45.288 53.263,44.701 53.772,44.486 C56.939,43.150 58.986,40.067 58.987,36.633 C58.986,33.108 56.766,29.903 53.461,28.658 C52.943,28.463 52.682,27.885 52.877,27.369 C53.073,26.852 53.653,26.591 54.169,26.786 C58.249,28.323 60.991,32.280 60.992,36.633 C60.991,40.873 58.464,44.679 54.553,46.329 ZM56.163,36.633 C56.163,38.931 54.793,40.994 52.674,41.889 C52.546,41.942 52.414,41.968 52.284,41.968 C51.893,41.968 51.522,41.739 51.360,41.357 C51.144,40.848 51.383,40.261 51.893,40.046 C53.269,39.465 54.159,38.125 54.159,36.633 C54.159,35.102 53.193,33.709 51.757,33.167 C51.239,32.972 50.978,32.395 51.173,31.878 C51.369,31.362 51.949,31.100 52.465,31.296 C54.677,32.129 56.163,34.274 56.163,36.633 ZM48.166,50.078 C48.063,50.112 47.958,50.128 47.853,50.128 C47.541,50.128 47.239,49.983 47.047,49.722 C46.875,49.494 42.689,44.063 33.095,44.063 C33.087,44.063 33.080,44.059 33.072,44.059 C33.031,44.061 32.992,44.063 32.948,44.063 L30.246,44.063 C30.647,49.751 34.350,52.405 34.389,52.433 C34.634,52.603 34.789,52.873 34.814,53.169 C34.839,53.466 34.730,53.758 34.517,53.966 L31.696,56.728 C31.503,56.918 31.249,57.015 30.994,57.015 C30.786,57.015 30.578,56.950 30.400,56.820 C25.411,53.155 24.184,46.506 23.895,44.052 C21.185,43.990 18.997,41.781 18.997,39.061 L18.997,34.068 C18.997,31.310 21.245,29.066 24.008,29.066 L32.989,29.066 C33.023,29.066 33.053,29.068 33.084,29.069 C33.088,29.068 33.091,29.066 33.095,29.066 C42.747,29.066 47.005,23.464 47.047,23.407 C47.303,23.059 47.756,22.916 48.166,23.052 C48.577,23.187 48.855,23.570 48.855,24.002 L48.855,49.128 C48.855,49.560 48.577,49.943 48.166,50.078 ZM30.927,54.679 L32.333,53.302 C30.971,51.992 28.566,48.969 28.262,44.063 L25.923,44.063 C26.224,46.282 27.295,51.525 30.927,54.679 ZM32.093,34.068 C32.093,32.740 32.076,31.719 32.056,31.067 L24.008,31.067 C22.350,31.067 21.001,32.414 21.001,34.068 L21.001,39.061 C21.001,40.716 22.350,42.062 24.008,42.062 L32.042,42.062 C32.069,41.417 32.093,40.392 32.093,39.061 L32.093,34.068 ZM46.851,26.437 C44.698,28.260 40.565,30.807 34.097,31.048 L34.097,34.068 L34.097,39.061 L34.097,42.081 C40.565,42.323 44.698,44.870 46.851,46.693 L46.851,26.437 Z" class="cls-1"/>
</svg>
