<svg xmlns="http://www.w3.org/2000/svg" xmlns:xlink="http://www.w3.org/1999/xlink" preserveAspectRatio="xMidYMid" width="28" height="9" viewBox="0 0 28 9">
  <defs>
    <style>
      .cls-1 {
        fill: #bcc3c6;
        fill-rule: evenodd;
      }
    </style>
  </defs>
  <path d="M26.998,8.992 L16.150,8.992 C15.599,8.992 15.153,8.532 15.153,7.963 L15.153,1.042 C15.153,0.474 15.599,0.013 16.150,0.013 L26.998,0.013 C27.549,0.013 27.995,0.474 27.995,1.042 L27.995,7.963 C27.995,8.532 27.549,8.992 26.998,8.992 ZM26.001,2.071 L17.146,2.071 L17.146,6.933 L26.001,6.933 L26.001,2.071 ZM20.971,3.060 L22.525,4.262 C22.598,4.318 22.641,4.408 22.641,4.502 C22.641,4.597 22.598,4.686 22.525,4.743 L20.971,5.945 C20.920,5.985 20.859,6.005 20.797,6.005 C20.752,6.005 20.708,5.995 20.666,5.974 C20.568,5.923 20.506,5.819 20.506,5.705 L20.506,3.300 C20.506,3.186 20.568,3.082 20.666,3.031 C20.766,2.981 20.883,2.992 20.971,3.060 ZM21.088,5.104 L21.865,4.502 L21.088,3.901 L21.088,5.104 ZM11.835,8.992 L0.987,8.992 C0.436,8.992 -0.010,8.532 -0.010,7.963 L-0.010,1.042 C-0.010,0.474 0.436,0.013 0.987,0.013 L11.835,0.013 C12.386,0.013 12.832,0.474 12.832,1.042 L12.832,7.963 C12.832,8.532 12.386,8.992 11.835,8.992 ZM10.838,2.071 L1.984,2.071 L1.984,6.933 L10.838,6.933 L10.838,2.071 ZM5.809,3.060 L7.363,4.262 C7.436,4.318 7.479,4.408 7.479,4.502 C7.479,4.597 7.436,4.686 7.363,4.743 L5.809,5.945 C5.758,5.985 5.696,6.005 5.635,6.005 C5.590,6.005 5.546,5.995 5.504,5.974 C5.406,5.923 5.343,5.819 5.343,5.705 L5.343,3.300 C5.343,3.186 5.406,3.082 5.504,3.031 C5.604,2.981 5.721,2.992 5.809,3.060 ZM5.926,5.104 L6.703,4.502 L5.926,3.901 L5.926,5.104 Z" class="cls-1"/>
</svg>
