<svg xmlns="http://www.w3.org/2000/svg" xmlns:xlink="http://www.w3.org/1999/xlink" preserveAspectRatio="xMidYMid" width="16" height="19" viewBox="0 0 16 19">
  <defs>
    <style>
      .cls-1 {
        fill: #b9bec2;
        fill-rule: evenodd;
      }
    </style>
  </defs>
  <path d="M14.022,17.997 L1.980,17.997 C0.890,17.997 0.003,17.099 0.003,15.996 L0.003,3.805 C0.003,2.702 0.890,1.804 1.980,1.804 L3.766,1.804 L3.766,1.244 C3.766,0.566 4.312,0.014 4.982,0.014 C5.653,0.014 6.198,0.566 6.198,1.244 L6.198,1.804 L10.275,1.804 L10.275,1.244 C10.275,0.566 10.820,0.014 11.490,0.014 C12.160,0.014 12.706,0.566 12.706,1.244 L12.706,1.804 L14.022,1.804 C15.112,1.804 15.999,2.702 15.999,3.805 L15.999,15.996 C15.999,17.099 15.112,17.997 14.022,17.997 ZM5.257,1.244 C5.257,1.091 5.134,0.967 4.983,0.967 C4.831,0.967 4.708,1.091 4.708,1.244 L4.708,3.271 C4.708,3.424 4.831,3.548 4.982,3.548 L4.983,3.548 C5.134,3.548 5.257,3.424 5.257,3.271 L5.257,1.244 ZM11.764,1.244 C11.764,1.091 11.641,0.967 11.490,0.967 C11.339,0.967 11.216,1.091 11.216,1.244 L11.216,3.271 C11.216,3.424 11.339,3.548 11.490,3.548 C11.641,3.548 11.764,3.424 11.764,3.271 L11.764,1.244 ZM15.058,3.805 C15.058,3.227 14.593,2.757 14.022,2.757 L12.706,2.757 L12.706,3.271 C12.706,3.949 12.160,4.501 11.490,4.501 C10.820,4.501 10.275,3.949 10.275,3.271 L10.275,2.757 L6.198,2.757 L6.198,3.271 C6.198,3.949 5.653,4.501 4.983,4.501 C4.312,4.501 3.766,3.949 3.766,3.271 L3.766,2.757 L1.980,2.757 C1.409,2.757 0.944,3.227 0.944,3.805 L0.944,5.812 L15.058,5.812 L15.058,3.805 ZM15.058,6.765 L0.944,6.765 L0.944,15.996 C0.944,16.574 1.409,17.044 1.980,17.044 L14.022,17.044 C14.593,17.044 15.058,16.574 15.058,15.996 L15.058,6.765 ZM14.180,13.313 C14.440,13.313 14.651,13.526 14.651,13.789 C14.651,14.052 14.440,14.266 14.180,14.266 L12.507,14.266 L12.507,15.830 C12.507,16.093 12.296,16.306 12.036,16.306 C11.777,16.306 11.566,16.093 11.566,15.830 L11.566,14.266 L8.472,14.266 L8.472,15.830 C8.472,16.093 8.261,16.306 8.001,16.306 C7.741,16.306 7.530,16.093 7.530,15.830 L7.530,14.266 L4.436,14.266 L4.436,15.830 C4.436,16.093 4.225,16.306 3.965,16.306 C3.705,16.306 3.495,16.093 3.495,15.830 L3.495,14.266 L1.822,14.266 C1.562,14.266 1.351,14.052 1.351,13.789 C1.351,13.526 1.562,13.313 1.822,13.313 L3.495,13.313 L3.495,10.377 L1.822,10.377 C1.562,10.377 1.351,10.164 1.351,9.901 C1.351,9.637 1.562,9.424 1.822,9.424 L3.495,9.424 L3.495,7.861 C3.495,7.598 3.705,7.384 3.965,7.384 C4.225,7.384 4.436,7.598 4.436,7.861 L4.436,9.424 L7.530,9.424 L7.530,7.861 C7.530,7.598 7.741,7.384 8.001,7.384 C8.261,7.384 8.472,7.598 8.472,7.861 L8.472,9.424 L11.566,9.424 L11.566,7.861 C11.566,7.598 11.777,7.384 12.036,7.384 C12.296,7.384 12.507,7.598 12.507,7.861 L12.507,9.424 L14.180,9.424 C14.440,9.424 14.651,9.637 14.651,9.901 C14.651,10.164 14.440,10.377 14.180,10.377 L12.507,10.377 L12.507,13.313 L14.180,13.313 ZM7.530,10.377 L4.436,10.377 L4.436,13.313 L7.530,13.313 L7.530,10.377 ZM11.566,10.377 L8.472,10.377 L8.472,13.313 L11.566,13.313 L11.566,10.377 Z" class="cls-1"/>
</svg>
