<svg xmlns="http://www.w3.org/2000/svg" xmlns:xlink="http://www.w3.org/1999/xlink" preserveAspectRatio="xMidYMid" width="80" height="80" viewBox="0 0 80 80">
  <defs>
    <style>
      .cls-1 {
        fill: #fff;
        fill-rule: evenodd;
      }
    </style>
  </defs>
  <path d="M60.587,39.438 L55.012,44.257 C54.792,44.446 54.511,44.550 54.221,44.550 L45.431,44.550 L45.431,64.806 C45.431,65.465 44.892,66.000 44.227,66.000 L39.412,66.000 C38.747,66.000 38.209,65.465 38.209,64.806 L38.209,44.550 L30.465,44.550 C29.799,44.550 29.261,44.016 29.261,43.356 L29.261,33.720 C29.261,33.061 29.799,32.526 30.465,32.526 L38.209,32.526 L38.209,30.520 L26.774,30.520 C26.484,30.520 26.203,30.416 25.983,30.226 L20.408,25.408 C20.145,25.181 19.995,24.853 19.995,24.508 C19.995,24.163 20.145,23.835 20.408,23.608 L25.983,18.790 C26.203,18.600 26.484,18.496 26.774,18.496 L38.209,18.496 L38.209,16.193 C38.209,15.534 38.747,15.000 39.412,15.000 L44.227,15.000 C44.892,15.000 45.431,15.534 45.431,16.193 L45.431,18.496 L50.530,18.496 C51.195,18.496 51.733,19.031 51.733,19.690 L51.733,29.326 C51.733,29.986 51.195,30.520 50.530,30.520 L45.431,30.520 L45.431,32.526 L54.221,32.526 C54.511,32.526 54.792,32.631 55.012,32.820 L60.587,37.639 C60.849,37.865 60.999,38.193 60.999,38.538 C60.999,38.884 60.849,39.212 60.587,39.438 ZM40.616,63.612 L43.023,63.612 L43.023,44.550 L40.616,44.550 L40.616,63.612 ZM43.023,17.387 L40.616,17.387 L40.616,18.496 L43.023,18.496 L43.023,17.387 ZM49.326,20.884 L27.225,20.884 L23.031,24.508 L27.225,28.132 L39.412,28.132 L44.227,28.132 L49.326,28.132 L49.326,20.884 ZM43.023,30.520 L40.616,30.520 L40.616,32.526 L43.023,32.526 L43.023,30.520 ZM53.769,34.914 L44.227,34.914 L39.412,34.914 L31.668,34.914 L31.668,42.163 L53.769,42.163 L57.963,38.538 L53.769,34.914 Z" class="cls-1"/>
</svg>
