<svg xmlns="http://www.w3.org/2000/svg" xmlns:xlink="http://www.w3.org/1999/xlink" preserveAspectRatio="xMidYMid" width="80" height="80" viewBox="0 0 80 80">
  <defs>
    <style>
      .cls-1 {
        fill: #3d6d91;
        fill-rule: evenodd;
      }
    </style>
  </defs>
  <path d="M57.295,51.329 L41.039,51.329 L41.039,54.913 L47.553,54.913 C48.128,54.913 48.594,55.378 48.594,55.953 C48.594,56.527 48.128,56.993 47.553,56.993 L32.444,56.993 C31.869,56.993 31.403,56.527 31.403,55.953 C31.403,55.378 31.869,54.913 32.444,54.913 L38.958,54.913 L38.958,51.329 L22.703,51.329 C21.211,51.329 19.997,50.116 19.997,48.625 L19.997,24.707 C19.997,23.215 21.211,22.002 22.703,22.002 L57.295,22.002 C58.786,22.002 60.000,23.215 60.000,24.707 L60.000,48.625 C60.000,50.116 58.786,51.329 57.295,51.329 ZM57.919,24.707 C57.919,24.368 57.633,24.082 57.295,24.082 L22.703,24.082 C22.364,24.082 22.078,24.368 22.078,24.707 L22.078,48.625 C22.078,48.963 22.364,49.249 22.703,49.249 L57.295,49.249 C57.633,49.249 57.919,48.963 57.919,48.625 L57.919,24.707 ZM44.709,38.471 L36.765,38.893 L36.765,38.985 L45.497,38.985 C45.978,38.985 46.368,39.363 46.368,39.831 C46.368,40.299 45.978,40.678 45.497,40.678 L35.894,40.678 C35.413,40.678 35.022,40.299 35.022,39.832 L35.018,30.329 L33.263,30.329 C32.781,30.329 32.391,29.949 32.391,29.482 C32.391,29.014 32.781,28.635 33.263,28.635 L35.889,28.635 C36.370,28.635 36.760,29.014 36.761,29.482 L36.762,31.839 L45.805,31.839 C46.070,31.839 46.321,31.956 46.485,32.157 C46.651,32.358 46.713,32.621 46.656,32.872 L45.512,37.811 C45.426,38.181 45.098,38.450 44.709,38.471 ZM36.819,33.532 L36.821,37.194 L43.956,36.815 L44.716,33.532 L36.819,33.532 ZM37.748,40.898 C38.826,40.898 39.703,41.750 39.703,42.797 C39.703,43.844 38.826,44.697 37.748,44.697 C36.670,44.697 35.793,43.844 35.793,42.797 C35.793,41.750 36.670,40.898 37.748,40.898 ZM37.748,43.003 C37.865,43.003 37.960,42.910 37.960,42.797 C37.960,42.683 37.865,42.591 37.748,42.591 C37.631,42.591 37.536,42.683 37.536,42.797 C37.536,42.910 37.631,43.003 37.748,43.003 ZM43.643,40.898 C44.721,40.898 45.598,41.750 45.598,42.797 C45.598,43.844 44.721,44.697 43.643,44.697 C42.564,44.697 41.687,43.844 41.687,42.797 C41.687,41.750 42.564,40.898 43.643,40.898 ZM43.643,43.003 C43.760,43.003 43.855,42.910 43.855,42.797 C43.855,42.683 43.760,42.591 43.643,42.591 C43.526,42.591 43.430,42.683 43.430,42.797 C43.430,42.910 43.526,43.003 43.643,43.003 Z" class="cls-1"/>
</svg>
