<svg xmlns="http://www.w3.org/2000/svg" xmlns:xlink="http://www.w3.org/1999/xlink" preserveAspectRatio="xMidYMid" width="80" height="80" viewBox="0 0 80 80">
  <defs>
    <style>
      .cls-1 {
        fill: #fff;
        fill-rule: evenodd;
      }
    </style>
  </defs>
  <path d="M51.657,63.998 L49.095,63.998 L30.903,63.998 L28.340,63.998 C27.604,63.998 27.008,63.427 27.008,62.723 C27.008,62.019 27.604,61.448 28.340,61.448 L29.571,61.448 L29.571,20.407 C29.571,19.703 30.167,19.132 30.903,19.132 L33.899,19.132 L39.191,15.265 C39.667,14.916 40.330,14.916 40.806,15.265 L46.100,19.132 L49.095,19.132 C49.832,19.132 50.427,19.703 50.427,20.407 L50.427,61.448 L51.657,61.448 C52.393,61.448 52.989,62.019 52.989,62.723 C52.989,63.427 52.393,63.998 51.657,63.998 ZM39.998,17.883 L38.288,19.132 L41.709,19.132 L39.998,17.883 ZM47.763,21.682 L45.649,21.682 L34.349,21.682 L32.235,21.682 L32.235,61.448 L47.763,61.448 L47.763,21.682 ZM35.329,27.108 L44.670,27.108 C45.406,27.108 46.002,27.679 46.002,28.383 C46.002,29.087 45.406,29.658 44.670,29.658 L35.329,29.658 C34.592,29.658 33.996,29.087 33.996,28.383 C33.996,27.679 34.592,27.108 35.329,27.108 ZM35.329,35.896 L44.670,35.896 C45.406,35.896 46.002,36.467 46.002,37.171 C46.002,37.875 45.406,38.446 44.670,38.446 L35.329,38.446 C34.592,38.446 33.996,37.875 33.996,37.171 C33.996,36.467 34.592,35.896 35.329,35.896 ZM35.329,44.684 L44.670,44.684 C45.406,44.684 46.002,45.255 46.002,45.959 C46.002,46.663 45.406,47.234 44.670,47.234 L35.329,47.234 C34.592,47.234 33.996,46.663 33.996,45.959 C33.996,45.255 34.592,44.684 35.329,44.684 ZM35.329,53.472 L44.670,53.472 C45.406,53.472 46.002,54.043 46.002,54.747 C46.002,55.451 45.406,56.022 44.670,56.022 L35.329,56.022 C34.592,56.022 33.996,55.451 33.996,54.747 C33.996,54.043 34.592,53.472 35.329,53.472 Z" class="cls-1"/>
</svg>
