<svg xmlns="http://www.w3.org/2000/svg" xmlns:xlink="http://www.w3.org/1999/xlink" preserveAspectRatio="xMidYMid" width="80" height="80" viewBox="0 0 80 80">
  <defs>
    <style>
      .cls-1 {
        fill: #3f3f3f;
        fill-rule: evenodd;
      }
    </style>
  </defs>
  <path d="M56.943,47.341 C56.810,47.692 56.468,47.926 56.085,47.926 L50.629,47.925 L54.718,56.254 C54.824,56.471 54.838,56.720 54.754,56.946 C54.671,57.172 54.498,57.356 54.276,57.456 L51.030,58.916 C50.906,58.972 50.777,58.998 50.649,58.998 C50.308,58.998 49.981,58.811 49.823,58.490 L45.708,50.109 L42.530,53.877 C42.285,54.168 41.879,54.277 41.516,54.149 C41.153,54.022 40.910,53.685 40.910,53.307 L40.910,35.038 C40.910,34.688 41.118,34.370 41.443,34.224 C41.769,34.078 42.149,34.130 42.421,34.359 L56.681,46.351 C56.971,46.595 57.076,46.990 56.943,47.341 ZM42.740,36.987 L42.740,50.816 L45.208,47.889 C45.383,47.682 45.642,47.564 45.913,47.564 C45.950,47.564 45.987,47.566 46.024,47.571 C46.333,47.608 46.603,47.797 46.738,48.072 L51.083,56.922 L52.666,56.209 L48.349,47.417 C48.213,47.140 48.232,46.813 48.400,46.552 C48.567,46.292 48.859,46.134 49.174,46.134 L53.616,46.134 L42.740,36.987 ZM47.177,27.676 C47.682,27.676 48.091,28.077 48.091,28.572 L48.091,31.329 C48.091,31.823 47.682,32.224 47.177,32.224 C46.671,32.224 46.262,31.823 46.262,31.329 L46.262,28.572 C46.262,28.077 46.671,27.676 47.177,27.676 ZM47.191,24.747 C46.686,24.747 46.276,24.347 46.276,23.852 L46.276,22.788 L45.189,22.788 C44.683,22.788 44.274,22.387 44.274,21.892 C44.274,21.398 44.683,20.997 45.189,20.997 L47.191,20.997 C47.696,20.997 48.106,21.398 48.106,21.892 L48.106,23.852 C48.106,24.347 47.696,24.747 47.191,24.747 ZM40.354,22.788 L37.537,22.788 C37.032,22.788 36.623,22.387 36.623,21.892 C36.623,21.398 37.032,20.997 37.537,20.997 L40.354,20.997 C40.859,20.997 41.268,21.398 41.268,21.892 C41.268,22.387 40.859,22.788 40.354,22.788 ZM40.338,34.068 C40.338,34.350 40.202,34.615 39.972,34.784 L34.313,38.937 C34.152,39.055 33.959,39.116 33.764,39.116 C33.625,39.116 33.485,39.085 33.355,39.021 C33.046,38.869 32.850,38.560 32.850,38.220 L32.850,29.916 C32.850,29.577 33.046,29.267 33.355,29.115 C33.667,28.964 34.037,28.997 34.313,29.200 L39.972,33.352 C40.202,33.521 40.338,33.786 40.338,34.068 ZM34.679,31.706 L34.679,36.430 L37.898,34.068 L34.679,31.706 ZM32.596,22.788 L29.780,22.788 C29.275,22.788 28.865,22.387 28.865,21.892 C28.865,21.398 29.275,20.997 29.780,20.997 L32.596,20.997 C33.101,20.997 33.511,21.398 33.511,21.892 C33.511,22.387 33.101,22.788 32.596,22.788 ZM25.928,45.562 L23.926,45.562 C23.421,45.562 23.011,45.161 23.011,44.667 L23.011,42.707 C23.011,42.213 23.421,41.812 23.926,41.812 C24.431,41.812 24.841,42.213 24.841,42.707 L24.841,43.771 L25.928,43.771 C26.433,43.771 26.842,44.172 26.842,44.667 C26.842,45.161 26.433,45.562 25.928,45.562 ZM25.928,22.788 L24.841,22.788 L24.841,23.852 C24.841,24.347 24.431,24.747 23.926,24.747 C23.421,24.747 23.011,24.347 23.011,23.852 L23.011,21.892 C23.011,21.398 23.421,20.997 23.926,20.997 L25.928,20.997 C26.433,20.997 26.842,21.398 26.842,21.892 C26.842,22.387 26.433,22.788 25.928,22.788 ZM23.913,27.676 C24.418,27.676 24.827,28.077 24.827,28.572 L24.827,31.329 C24.827,31.823 24.418,32.224 23.913,32.224 C23.407,32.224 22.998,31.823 22.998,31.329 L22.998,28.572 C22.998,28.077 23.407,27.676 23.913,27.676 ZM23.913,35.270 C24.418,35.270 24.827,35.671 24.827,36.166 L24.827,38.923 C24.827,39.417 24.418,39.818 23.913,39.818 C23.407,39.818 22.998,39.417 22.998,38.923 L22.998,36.166 C22.998,35.671 23.407,35.270 23.913,35.270 ZM29.780,43.771 L32.596,43.771 C33.101,43.771 33.511,44.172 33.511,44.667 C33.511,45.161 33.101,45.562 32.596,45.562 L29.780,45.562 C29.275,45.562 28.865,45.161 28.865,44.667 C28.865,44.172 29.275,43.771 29.780,43.771 Z" class="cls-1"/>
</svg>
