<svg xmlns="http://www.w3.org/2000/svg" xmlns:xlink="http://www.w3.org/1999/xlink" preserveAspectRatio="xMidYMid" width="80" height="80" viewBox="0 0 80 80">
  <defs>
    <style>
      .cls-1 {
        fill: #6d7073;
        fill-rule: evenodd;
      }
    </style>
  </defs>
  <path d="M60.998,53.009 L19.001,53.009 C18.448,53.009 18.000,52.564 18.000,52.014 L18.000,27.995 C18.000,27.446 18.448,27.000 19.001,27.000 L60.998,27.000 C61.551,27.000 61.998,27.446 61.998,27.995 L61.998,52.014 C61.998,52.564 61.551,53.009 60.998,53.009 ZM20.002,51.018 L22.811,51.018 C22.449,49.654 21.374,48.585 20.002,48.225 L20.002,51.018 ZM20.002,28.991 L20.002,31.784 C21.374,31.425 22.449,30.356 22.811,28.991 L20.002,28.991 ZM59.997,28.991 L57.187,28.991 C57.549,30.356 58.624,31.425 59.997,31.785 L59.997,28.991 ZM59.997,33.829 C57.515,33.408 55.555,31.459 55.132,28.991 L24.866,28.991 C24.443,31.459 22.484,33.408 20.002,33.829 L20.002,46.181 C22.484,46.602 24.443,48.550 24.866,51.018 L55.132,51.018 C55.555,48.550 57.515,46.602 59.997,46.181 L59.997,33.829 ZM59.997,48.225 C58.624,48.585 57.549,49.654 57.187,51.018 L59.997,51.018 L59.997,48.225 ZM39.999,48.081 C35.699,48.081 32.201,44.603 32.201,40.326 C32.201,36.049 35.699,32.570 39.999,32.570 C44.299,32.570 47.797,36.049 47.797,40.326 C47.797,44.603 44.299,48.081 39.999,48.081 ZM39.999,34.561 C36.803,34.561 34.203,37.147 34.203,40.326 C34.203,43.504 36.803,46.091 39.999,46.091 C43.196,46.091 45.795,43.504 45.795,40.326 C45.795,37.147 43.196,34.561 39.999,34.561 Z" class="cls-1"/>
</svg>
