<svg xmlns="http://www.w3.org/2000/svg" xmlns:xlink="http://www.w3.org/1999/xlink" preserveAspectRatio="xMidYMid" width="80" height="80" viewBox="0 0 80 80">
  <defs>
    <style>
      .cls-1 {
        fill: #589944;
        fill-rule: evenodd;
      }
    </style>
  </defs>
  <path d="M58.938,54.996 L21.061,54.996 C20.474,54.996 19.998,54.513 19.998,53.918 L19.998,27.066 C19.998,26.471 20.474,25.988 21.061,25.988 L58.938,25.988 C59.525,25.988 60.001,26.471 60.001,27.066 L60.001,53.918 C60.001,54.513 59.525,54.996 58.938,54.996 ZM57.875,28.143 L22.124,28.143 L22.124,52.841 L57.875,52.841 L57.875,28.143 ZM26.133,30.491 C26.720,30.491 27.196,30.973 27.196,31.569 L27.196,49.097 C27.196,49.693 26.720,50.175 26.133,50.175 C25.546,50.175 25.070,49.693 25.070,49.097 L25.070,31.569 C25.070,30.973 25.546,30.491 26.133,30.491 ZM30.755,30.491 C31.342,30.491 31.818,30.973 31.818,31.569 L31.818,45.548 C31.818,46.143 31.342,46.625 30.755,46.625 C30.168,46.625 29.692,46.143 29.692,45.548 L29.692,31.569 C29.692,30.973 30.168,30.491 30.755,30.491 ZM35.377,30.491 C35.964,30.491 36.440,30.973 36.440,31.569 L36.440,45.548 C36.440,46.143 35.964,46.625 35.377,46.625 C34.790,46.625 34.314,46.143 34.314,45.548 L34.314,31.569 C34.314,30.973 34.790,30.491 35.377,30.491 ZM39.999,30.491 C40.586,30.491 41.062,30.973 41.062,31.569 L41.062,49.097 C41.062,49.693 40.586,50.175 39.999,50.175 C39.412,50.175 38.937,49.693 38.937,49.097 L38.937,31.569 C38.937,30.973 39.412,30.491 39.999,30.491 ZM44.621,30.491 C45.208,30.491 45.684,30.973 45.684,31.569 L45.684,45.548 C45.684,46.143 45.208,46.625 44.621,46.625 C44.034,46.625 43.559,46.143 43.559,45.548 L43.559,31.569 C43.559,30.973 44.034,30.491 44.621,30.491 ZM49.244,30.491 C49.831,30.491 50.306,30.973 50.306,31.569 L50.306,45.548 C50.306,46.143 49.831,46.625 49.244,46.625 C48.657,46.625 48.181,46.143 48.181,45.548 L48.181,31.569 C48.181,30.973 48.657,30.491 49.244,30.491 ZM53.865,30.491 C54.452,30.491 54.928,30.973 54.928,31.569 L54.928,49.097 C54.928,49.693 54.452,50.175 53.865,50.175 C53.279,50.175 52.803,49.693 52.803,49.097 L52.803,31.569 C52.803,30.973 53.279,30.491 53.865,30.491 Z" class="cls-1"/>
</svg>
