<svg xmlns="http://www.w3.org/2000/svg" xmlns:xlink="http://www.w3.org/1999/xlink" preserveAspectRatio="xMidYMid" width="80" height="80" viewBox="0 0 80 80">
  <defs>
    <style>
      .cls-1 {
        fill: #589944;
        fill-rule: evenodd;
      }
    </style>
  </defs>
  <path d="M59.987,35.099 C59.720,36.254 59.065,36.753 58.563,36.967 C58.242,37.104 57.908,37.157 57.582,37.157 C57.396,37.157 57.221,37.123 57.044,37.094 C57.051,37.266 57.073,37.434 57.073,37.608 C57.073,45.586 52.860,49.876 51.503,51.051 L51.503,54.014 C51.503,54.562 51.063,55.007 50.519,55.007 L43.867,55.007 C43.323,55.007 42.883,54.562 42.883,54.014 L42.883,51.726 L38.507,51.726 L38.507,54.014 C38.507,54.562 38.066,55.007 37.523,55.007 L30.870,55.007 C30.327,55.007 29.887,54.562 29.887,54.014 L29.887,49.564 C24.822,48.596 20.427,43.644 20.233,43.422 C20.073,43.240 19.985,43.006 19.985,42.764 L19.985,36.670 C19.985,36.122 20.426,35.677 20.969,35.677 C23.079,35.677 25.242,33.559 26.331,32.215 C24.243,29.635 25.078,25.945 25.117,25.776 C25.185,25.487 25.378,25.244 25.643,25.113 C25.907,24.982 26.215,24.978 26.483,25.102 C26.510,25.114 29.062,26.278 32.158,26.600 C40.216,24.053 47.541,24.593 52.279,28.090 C54.644,29.835 56.188,32.227 56.787,34.979 C57.147,35.128 57.577,35.234 57.799,35.136 C57.945,35.073 58.028,34.836 58.071,34.647 C58.194,34.113 58.720,33.778 59.252,33.906 C59.781,34.030 60.110,34.565 59.987,35.099 ZM51.118,29.694 C46.854,26.547 40.091,26.132 32.561,28.554 C32.436,28.594 32.304,28.608 32.174,28.597 C29.998,28.398 28.078,27.824 26.896,27.400 C26.849,28.548 27.020,30.287 28.269,31.391 C28.645,31.723 28.715,32.288 28.431,32.703 C28.304,32.889 25.521,36.907 21.953,37.571 L21.953,42.372 C22.966,43.438 26.929,47.342 30.959,47.712 C31.466,47.758 31.854,48.187 31.854,48.701 L31.854,53.020 L36.539,53.020 L36.539,50.732 C36.539,50.184 36.980,49.739 37.523,49.739 L43.867,49.739 C44.410,49.739 44.850,50.184 44.850,50.732 L44.850,53.020 L49.536,53.020 L49.536,50.576 C49.536,50.257 49.687,49.957 49.943,49.771 C50.152,49.617 55.106,45.858 55.106,37.608 C55.106,34.403 53.690,31.592 51.118,29.694 ZM40.696,44.405 C40.650,44.451 40.591,44.475 40.539,44.511 C40.486,44.547 40.440,44.593 40.380,44.618 C40.261,44.668 40.132,44.696 40.000,44.696 C40.000,44.696 40.000,44.696 39.999,44.696 C39.999,44.696 39.999,44.696 39.999,44.696 C39.972,44.696 39.949,44.682 39.922,44.680 C39.819,44.672 39.716,44.659 39.622,44.619 C39.500,44.568 39.392,44.494 39.300,44.401 L35.463,40.525 C35.079,40.137 35.079,39.509 35.463,39.121 C35.847,38.732 36.470,38.732 36.854,39.121 L39.015,41.303 L39.015,33.914 C39.015,33.365 39.455,32.920 39.999,32.920 C40.542,32.920 40.982,33.365 40.982,33.914 L40.982,41.304 L43.143,39.121 C43.527,38.732 44.150,38.733 44.534,39.120 C44.918,39.508 44.918,40.137 44.534,40.525 L40.696,44.405 Z" class="cls-1"/>
</svg>
