<svg xmlns="http://www.w3.org/2000/svg" xmlns:xlink="http://www.w3.org/1999/xlink" preserveAspectRatio="xMidYMid" width="80" height="80" viewBox="0 0 80 80">
  <defs>
    <style>
      .cls-1 {
        fill: #589944;
        fill-rule: evenodd;
      }
    </style>
  </defs>
  <path d="M59.154,57.945 L46.567,60.957 C46.479,60.978 46.390,60.988 46.301,60.988 C46.213,60.988 46.124,60.978 46.036,60.957 L33.708,58.010 L21.395,60.957 C21.307,60.978 21.218,60.988 21.129,60.988 C20.882,60.988 20.639,60.909 20.440,60.756 C20.171,60.549 20.013,60.233 20.013,59.899 L20.013,41.192 C20.013,40.690 20.364,40.253 20.864,40.133 L33.448,37.124 C33.452,37.123 33.457,37.125 33.462,37.124 C33.544,37.105 33.628,37.120 33.713,37.120 C33.797,37.120 33.881,37.105 33.963,37.124 C33.968,37.125 33.973,37.123 33.979,37.124 L38.893,38.299 L38.893,34.253 C34.804,33.718 31.637,30.297 31.637,26.160 C31.637,21.653 35.393,17.986 40.009,17.986 C44.625,17.986 48.381,21.653 48.381,26.160 C48.381,30.297 45.214,33.718 41.125,34.253 L41.125,38.832 L46.302,40.070 L58.623,37.124 C58.954,37.044 59.308,37.118 59.577,37.325 C59.847,37.531 60.005,37.848 60.005,38.182 L60.005,56.887 C60.005,57.389 59.654,57.826 59.154,57.945 ZM32.597,39.571 L22.245,42.047 L22.245,58.509 L32.597,56.032 L32.597,39.571 ZM46.149,26.160 C46.149,22.854 43.394,20.165 40.009,20.165 C36.623,20.165 33.869,22.854 33.869,26.160 C33.869,29.466 36.623,32.155 40.009,32.155 C43.394,32.155 46.149,29.466 46.149,26.160 ZM40.009,45.904 C39.392,45.904 38.893,45.417 38.893,44.815 L38.893,40.543 L34.829,39.571 L34.829,56.034 L45.185,58.510 L45.185,42.047 L41.125,41.076 L41.125,44.815 C41.125,45.417 40.625,45.904 40.009,45.904 ZM57.773,39.571 L47.418,42.047 L47.418,58.509 L57.773,56.032 L57.773,39.571 ZM38.893,22.567 C38.893,21.965 39.392,21.477 40.009,21.477 C42.653,21.477 44.805,23.578 44.805,26.160 C44.805,26.762 44.305,27.250 43.689,27.250 C43.072,27.250 42.573,26.762 42.573,26.160 C42.573,24.780 41.423,23.657 40.009,23.657 C39.392,23.657 38.893,23.169 38.893,22.567 Z" class="cls-1"/>
</svg>
