<svg xmlns="http://www.w3.org/2000/svg" xmlns:xlink="http://www.w3.org/1999/xlink" preserveAspectRatio="xMidYMid" width="80" height="80" viewBox="0 0 80 80">
  <defs>
    <style>
      .cls-1 {
        fill: #589944;
        fill-rule: evenodd;
      }
    </style>
  </defs>
  <path d="M57.295,51.329 L41.039,51.329 L41.039,54.913 L47.553,54.913 C48.128,54.913 48.594,55.378 48.594,55.953 C48.594,56.527 48.128,56.993 47.553,56.993 L32.444,56.993 C31.869,56.993 31.403,56.527 31.403,55.953 C31.403,55.378 31.869,54.913 32.444,54.913 L38.958,54.913 L38.958,51.329 L22.703,51.329 C21.211,51.329 19.997,50.116 19.997,48.625 L19.997,24.706 C19.997,23.216 21.211,22.002 22.703,22.002 L57.295,22.002 C58.787,22.002 60.000,23.216 60.000,24.706 L60.000,48.625 C60.000,50.116 58.787,51.329 57.295,51.329 ZM57.919,24.706 C57.919,24.368 57.633,24.083 57.295,24.083 L22.703,24.083 C22.364,24.083 22.078,24.368 22.078,24.706 L22.078,48.625 C22.078,48.963 22.364,49.249 22.703,49.249 L57.295,49.249 C57.633,49.249 57.919,48.963 57.919,48.625 L57.919,24.706 ZM50.318,45.749 L45.945,45.749 C45.370,45.749 44.904,45.283 44.904,44.709 L44.904,28.622 C44.904,28.047 45.370,27.582 45.945,27.582 L50.318,27.582 C50.893,27.582 51.358,28.047 51.358,28.622 L51.358,44.709 C51.358,45.283 50.893,45.749 50.318,45.749 ZM49.277,29.662 L46.985,29.662 L46.985,43.669 L49.277,43.669 L49.277,29.662 ZM42.184,45.749 L37.811,45.749 C37.237,45.749 36.771,45.283 36.771,44.709 L36.771,33.319 C36.771,32.744 37.237,32.279 37.811,32.279 L42.184,32.279 C42.759,32.279 43.225,32.744 43.225,33.319 L43.225,44.709 C43.225,45.283 42.759,45.749 42.184,45.749 ZM41.144,34.359 L38.852,34.359 L38.852,43.669 L41.144,43.669 L41.144,34.359 ZM34.052,45.749 L29.679,45.749 C29.104,45.749 28.639,45.283 28.639,44.709 L28.639,38.015 C28.639,37.441 29.104,36.975 29.679,36.975 L34.052,36.975 C34.627,36.975 35.092,37.441 35.092,38.015 L35.092,44.709 C35.092,45.283 34.627,45.749 34.052,45.749 ZM33.012,39.056 L30.719,39.056 L30.719,43.669 L33.012,43.669 L33.012,39.056 Z" class="cls-1"/>
</svg>
