<svg xmlns="http://www.w3.org/2000/svg" xmlns:xlink="http://www.w3.org/1999/xlink" preserveAspectRatio="xMidYMid" width="80" height="80" viewBox="0 0 80 80">
  <defs>
    <style>
      .cls-1 {
        fill: #599a44;
        fill-rule: evenodd;
      }
    </style>
  </defs>
  <path d="M59.727,24.762 L41.593,45.850 C41.401,46.074 41.122,46.208 40.826,46.219 C40.813,46.220 40.799,46.220 40.786,46.220 C40.504,46.220 40.234,46.109 40.034,45.909 L30.817,36.722 C30.401,36.308 30.401,35.637 30.817,35.222 C31.232,34.808 31.906,34.808 32.321,35.222 L39.840,42.717 C40.318,43.194 41.101,43.163 41.541,42.652 L58.112,23.381 C58.494,22.936 59.167,22.885 59.612,23.266 C60.058,23.648 60.110,24.317 59.727,24.762 ZM45.990,25.132 L23.290,25.132 C22.650,25.132 22.131,25.650 22.131,26.289 L22.131,52.722 C22.131,53.360 22.650,53.879 23.290,53.879 L49.798,53.879 C50.439,53.879 50.958,53.360 50.958,52.722 L50.958,47.885 C50.958,47.299 51.434,46.824 52.022,46.824 C52.609,46.824 53.085,47.299 53.085,47.885 L53.085,53.783 C53.085,55.007 52.090,56.000 50.862,56.000 L22.227,56.000 C20.999,56.000 20.003,55.007 20.003,53.783 L20.003,25.228 C20.003,24.003 20.999,23.011 22.227,23.011 L45.990,23.011 C46.578,23.011 47.054,23.485 47.054,24.071 C47.054,24.657 46.578,25.132 45.990,25.132 Z" class="cls-1"/>
</svg>
