<svg xmlns="http://www.w3.org/2000/svg" xmlns:xlink="http://www.w3.org/1999/xlink" preserveAspectRatio="xMidYMid" width="16" height="22" viewBox="0 0 16 22">
  <defs>
    <style>
      .cls-1 {
        fill: #bcc3c6;
        fill-rule: evenodd;
      }
    </style>
  </defs>
  <path d="M15.858,4.478 C16.011,4.305 16.050,4.057 15.957,3.844 C15.864,3.631 15.656,3.494 15.427,3.494 L13.124,3.494 C12.948,2.899 12.530,2.411 11.978,2.161 C12.629,1.207 13.709,1.174 13.765,1.174 C14.084,1.172 14.342,0.909 14.342,0.584 C14.342,0.259 14.082,-0.005 13.762,-0.005 C13.670,-0.005 11.630,0.023 10.727,2.017 C9.964,2.169 9.357,2.747 9.137,3.494 L0.580,3.494 C0.351,3.494 0.144,3.631 0.050,3.844 C-0.043,4.057 -0.004,4.305 0.150,4.478 L7.424,12.662 L7.424,20.826 L4.951,20.826 C4.631,20.826 4.371,21.089 4.371,21.415 C4.371,21.740 4.631,22.004 4.951,22.004 L11.057,22.004 C11.377,22.004 11.637,21.740 11.637,21.415 C11.637,21.089 11.377,20.826 11.057,20.826 L8.584,20.826 L8.584,12.662 L15.858,4.478 ZM4.906,8.072 L11.101,8.072 L8.004,11.557 L4.906,8.072 ZM11.131,3.153 C11.416,3.153 11.669,3.288 11.840,3.494 L10.422,3.494 C10.592,3.288 10.845,3.153 11.131,3.153 ZM11.865,4.672 C11.694,4.897 11.430,5.044 11.131,5.044 C10.831,5.044 10.567,4.897 10.397,4.672 L11.865,4.672 ZM9.128,4.672 C9.376,5.564 10.175,6.222 11.131,6.222 C12.086,6.222 12.885,5.564 13.133,4.672 L14.122,4.672 L12.149,6.893 L3.859,6.893 L1.885,4.672 L9.128,4.672 Z" class="cls-1"/>
</svg>
