<svg xmlns="http://www.w3.org/2000/svg" xmlns:xlink="http://www.w3.org/1999/xlink" preserveAspectRatio="xMidYMid" width="80" height="80" viewBox="0 0 80 80">
  <defs>
    <style>
      .cls-1 {
        fill: #fff;
        fill-rule: evenodd;
      }
    </style>
  </defs>
  <path d="M41.387,51.425 L48.433,44.296 C49.198,43.522 49.198,42.268 48.433,41.495 C47.669,40.722 46.430,40.722 45.665,41.495 L41.961,45.244 L41.961,30.980 C41.961,29.886 41.084,28.999 40.003,28.999 C38.922,28.999 38.046,29.886 38.046,30.980 L38.046,45.244 L34.341,41.495 C33.577,40.722 32.338,40.722 31.573,41.495 C31.191,41.882 31.000,42.389 31.000,42.895 C31.000,43.402 31.191,43.909 31.573,44.296 L38.619,51.425 C39.384,52.199 40.623,52.199 41.387,51.425 Z" class="cls-1"/>
</svg>
