<svg xmlns="http://www.w3.org/2000/svg" xmlns:xlink="http://www.w3.org/1999/xlink" preserveAspectRatio="xMidYMid" width="80" height="80" viewBox="0 0 80 80">
  <defs>
    <style>
      .cls-1 {
        fill: #3d6d91;
        fill-rule: evenodd;
      }
    </style>
  </defs>
  <path d="M56.732,50.601 L56.247,50.601 C55.644,50.601 55.156,50.114 55.156,49.513 C55.156,48.913 55.644,48.426 56.247,48.426 L56.732,48.426 C57.323,48.426 57.805,47.947 57.805,47.357 L57.805,25.255 C57.805,24.665 57.323,24.185 56.732,24.185 L23.250,24.185 C22.659,24.185 22.177,24.665 22.177,25.255 L22.177,47.357 C22.177,47.947 22.659,48.426 23.250,48.426 L40.047,48.426 C40.649,48.426 41.138,48.913 41.138,49.513 C41.138,50.114 40.649,50.601 40.047,50.601 L23.250,50.601 C21.455,50.601 19.995,49.146 19.995,47.357 L19.995,25.255 C19.995,23.466 21.455,22.011 23.250,22.011 L56.732,22.011 C58.527,22.011 59.987,23.466 59.987,25.255 L59.987,47.357 C59.987,49.146 58.527,50.601 56.732,50.601 ZM27.758,41.271 L38.852,41.271 C39.454,41.271 39.943,41.758 39.943,42.358 C39.943,42.959 39.454,43.446 38.852,43.446 L27.758,43.446 C27.156,43.446 26.667,42.959 26.667,42.358 C26.667,41.758 27.156,41.271 27.758,41.271 ZM52.466,31.340 L27.758,31.340 C27.156,31.340 26.667,30.854 26.667,30.253 C26.667,29.653 27.156,29.166 27.758,29.166 L52.466,29.166 C53.068,29.166 53.557,29.653 53.557,30.253 C53.557,30.854 53.068,31.340 52.466,31.340 ZM52.466,37.393 L27.758,37.393 C27.156,37.393 26.667,36.906 26.667,36.305 C26.667,35.705 27.156,35.218 27.758,35.218 L52.466,35.218 C53.068,35.218 53.557,35.705 53.557,36.305 C53.557,36.906 53.068,37.393 52.466,37.393 ZM41.195,46.261 L42.197,44.675 L41.800,42.842 C41.682,42.295 41.999,41.748 42.533,41.577 L44.324,41.005 L45.201,39.347 C45.463,38.851 46.058,38.636 46.578,38.847 L48.320,39.556 L50.060,38.847 C50.578,38.636 51.176,38.851 51.438,39.347 L52.315,41.005 L54.106,41.577 C54.640,41.748 54.957,42.295 54.839,42.842 L54.441,44.675 L55.444,46.261 C55.743,46.734 55.633,47.357 55.189,47.699 L53.702,48.848 L53.448,50.705 C53.371,51.260 52.883,51.661 52.324,51.644 L52.297,51.643 L52.297,56.906 C52.297,57.276 52.109,57.620 51.796,57.820 C51.483,58.020 51.089,58.049 50.753,57.895 L48.320,56.789 L45.885,57.895 C45.741,57.961 45.587,57.993 45.433,57.993 C45.227,57.993 45.021,57.935 44.843,57.820 C44.530,57.620 44.342,57.276 44.342,56.906 L44.342,51.643 L44.315,51.644 C43.761,51.659 43.267,51.260 43.191,50.705 L42.936,48.848 L41.450,47.699 C41.006,47.357 40.896,46.734 41.195,46.261 ZM46.524,55.215 L47.867,54.604 C48.154,54.474 48.486,54.474 48.772,54.604 L50.115,55.215 L50.115,51.870 L49.053,52.830 C48.845,53.019 48.582,53.113 48.320,53.113 C48.057,53.113 47.795,53.019 47.587,52.830 L46.524,51.870 L46.524,55.215 ZM44.625,47.401 C44.851,47.575 44.999,47.831 45.037,48.113 L45.219,49.433 L46.554,49.381 C46.568,49.381 46.582,49.380 46.596,49.380 C46.866,49.380 47.128,49.481 47.329,49.662 L48.320,50.557 L49.309,49.662 C49.521,49.471 49.796,49.371 50.085,49.381 L51.420,49.433 L51.601,48.113 C51.640,47.831 51.788,47.575 52.014,47.401 L53.070,46.585 L52.357,45.459 C52.205,45.218 52.154,44.927 52.214,44.649 L52.496,43.347 L51.224,42.940 C50.952,42.853 50.725,42.663 50.592,42.411 L49.969,41.233 L48.732,41.737 C48.468,41.845 48.171,41.845 47.907,41.737 L46.669,41.233 L46.046,42.411 C45.913,42.663 45.687,42.853 45.415,42.940 L44.142,43.347 L44.425,44.649 C44.485,44.927 44.434,45.218 44.281,45.459 L43.569,46.585 L44.625,47.401 Z" class="cls-1"/>
</svg>
