<svg xmlns="http://www.w3.org/2000/svg" xmlns:xlink="http://www.w3.org/1999/xlink" preserveAspectRatio="xMidYMid" width="80" height="80" viewBox="0 0 80 80">
  <defs>
    <style>
      .cls-1 {
        fill: #fff;
        fill-rule: evenodd;
      }
    </style>
  </defs>
  <path d="M54.431,50.129 L40.845,50.129 L40.845,53.274 L46.425,53.274 C46.896,53.274 47.278,53.659 47.278,54.135 C47.278,54.610 46.896,54.995 46.425,54.995 L33.559,54.995 C33.088,54.995 32.706,54.610 32.706,54.135 C32.706,53.659 33.088,53.274 33.559,53.274 L39.140,53.274 L39.140,50.129 L25.554,50.129 C24.143,50.129 22.995,48.972 22.995,47.549 L22.995,27.582 C22.995,26.159 24.143,25.001 25.554,25.001 L54.431,25.001 C55.842,25.001 56.990,26.159 56.990,27.582 L56.990,47.549 C56.990,48.972 55.842,50.129 54.431,50.129 ZM55.284,27.582 C55.284,27.107 54.902,26.721 54.431,26.721 L25.554,26.721 C25.083,26.721 24.701,27.107 24.701,27.582 L24.701,47.549 C24.701,48.023 25.083,48.409 25.554,48.409 L54.431,48.409 C54.902,48.409 55.284,48.023 55.284,47.549 L55.284,27.582 ZM44.886,42.521 L35.098,42.521 C34.626,42.521 34.245,42.136 34.245,41.661 L34.245,40.700 C34.245,39.908 34.704,39.178 35.413,38.839 L37.341,37.919 C36.960,37.401 36.733,36.773 36.708,36.110 L36.637,34.219 C36.636,32.478 38.030,31.088 39.744,31.088 L40.241,31.088 C41.955,31.088 43.349,32.478 43.349,34.186 L43.276,36.110 C43.251,36.774 43.024,37.403 42.642,37.921 L44.570,38.839 C45.280,39.178 45.739,39.908 45.739,40.701 L45.739,41.661 C45.739,42.136 45.358,42.521 44.886,42.521 ZM44.034,40.701 C44.034,40.571 43.959,40.451 43.842,40.395 L40.730,38.913 C40.435,38.772 40.245,38.474 40.242,38.144 C40.238,37.815 40.421,37.512 40.713,37.365 C41.222,37.109 41.551,36.603 41.572,36.044 L41.644,34.153 C41.643,33.427 41.014,32.809 40.241,32.809 L39.744,32.809 C38.971,32.809 38.342,33.427 38.342,34.186 L38.413,36.044 C38.434,36.602 38.762,37.108 39.269,37.364 C39.560,37.512 39.743,37.814 39.739,38.143 C39.735,38.472 39.546,38.770 39.251,38.911 L36.143,40.394 C36.026,40.450 35.951,40.570 35.951,40.700 L35.951,40.800 L44.034,40.800 L44.034,40.701 Z" class="cls-1"/>
</svg>
