<svg xmlns="http://www.w3.org/2000/svg" xmlns:xlink="http://www.w3.org/1999/xlink" preserveAspectRatio="xMidYMid" width="80" height="80" viewBox="0 0 80 80">
  <defs>
    <style>
      .cls-1 {
        fill: #3f3f3f;
        fill-rule: evenodd;
      }
    </style>
  </defs>
  <path d="M51.064,23.853 L50.213,23.853 L50.213,28.298 C50.213,30.889 49.708,34.213 45.765,36.939 C44.361,37.910 43.635,38.883 43.607,39.831 C43.576,40.839 44.318,41.943 45.810,43.113 C49.896,46.314 50.213,49.812 50.213,50.808 L50.213,55.140 L51.064,55.140 C51.581,55.140 52.000,55.554 52.000,56.065 C52.000,56.575 51.581,56.989 51.064,56.989 L28.933,56.989 C28.416,56.989 27.997,56.575 27.997,56.065 C27.997,55.554 28.416,55.140 28.933,55.140 L29.784,55.140 L29.784,50.808 C29.784,49.812 30.102,46.314 34.188,43.113 C35.680,41.943 36.420,40.840 36.390,39.832 C36.362,38.884 35.636,37.910 34.232,36.938 C30.290,34.213 29.784,30.889 29.784,28.298 L29.784,23.853 L28.933,23.853 C28.416,23.853 27.997,23.439 27.997,22.928 C27.997,22.418 28.416,22.004 28.933,22.004 L51.064,22.004 C51.581,22.004 52.000,22.418 52.000,22.928 C52.000,23.439 51.581,23.853 51.064,23.853 ZM48.341,55.140 L48.341,53.494 C47.065,52.844 43.403,51.146 39.999,51.146 C36.586,51.146 32.930,52.843 31.656,53.493 L31.656,55.140 L48.341,55.140 ZM35.306,35.423 C37.220,36.749 38.214,38.213 38.261,39.777 C38.310,41.400 37.331,43.010 35.351,44.562 C31.922,47.248 31.656,50.022 31.656,50.808 L31.656,51.429 C33.469,50.586 36.770,49.297 39.999,49.297 C43.227,49.297 46.528,50.586 48.341,51.429 L48.341,50.808 C48.341,50.022 48.075,47.248 44.647,44.562 C42.666,43.010 41.687,41.400 41.736,39.776 C41.783,38.213 42.778,36.748 44.692,35.424 C45.593,34.801 46.270,34.145 46.786,33.476 L33.212,33.476 C33.728,34.145 34.405,34.800 35.306,35.423 ZM48.341,23.853 L31.656,23.853 L31.656,28.298 C31.656,29.357 31.754,30.491 32.179,31.626 L47.819,31.626 C48.243,30.492 48.341,29.357 48.341,28.298 L48.341,23.853 Z" class="cls-1"/>
</svg>
