<svg xmlns="http://www.w3.org/2000/svg" xmlns:xlink="http://www.w3.org/1999/xlink" preserveAspectRatio="xMidYMid" width="80" height="80" viewBox="0 0 80 80">
  <defs>
    <style>
      .cls-1 {
        fill: #3f3f3f;
        fill-rule: evenodd;
      }
    </style>
  </defs>
  <path d="M49.990,47.099 C49.990,42.386 45.209,40.903 41.716,39.821 C41.485,39.749 41.267,39.679 41.046,39.609 L41.046,28.162 C45.276,28.441 47.930,30.505 47.980,30.544 C48.380,30.865 48.973,30.812 49.306,30.426 C49.640,30.039 49.587,29.462 49.186,29.139 C49.051,29.030 45.998,26.612 41.046,26.329 L41.046,23.912 C41.046,23.407 40.623,22.998 40.102,22.998 C39.581,22.998 39.159,23.407 39.159,23.912 L39.159,26.334 C34.324,26.666 31.141,29.558 31.141,33.743 C31.141,37.890 36.087,39.884 39.159,40.922 L39.159,52.065 C36.331,51.620 33.021,50.021 31.509,48.860 C31.100,48.545 30.506,48.613 30.183,49.009 C29.860,49.404 29.928,49.979 30.337,50.293 C32.050,51.607 35.791,53.475 39.159,53.919 L39.159,57.080 C39.159,57.585 39.581,57.994 40.102,57.994 C40.623,57.994 41.046,57.585 41.046,57.080 L41.046,54.001 C44.915,53.836 49.990,51.680 49.990,47.099 ZM33.028,33.743 C33.028,30.538 35.353,28.460 39.159,28.168 L39.159,38.972 C35.930,37.798 33.028,36.233 33.028,33.743 ZM41.046,52.173 L41.046,41.532 C41.079,41.542 41.108,41.552 41.142,41.562 C45.086,42.785 48.103,43.969 48.103,47.099 C48.103,50.393 44.057,52.016 41.046,52.173 Z" class="cls-1"/>
</svg>
