<svg xmlns="http://www.w3.org/2000/svg" xmlns:xlink="http://www.w3.org/1999/xlink" preserveAspectRatio="xMidYMid" width="80" height="80" viewBox="0 0 80 80">
  <defs>
    <style>
      .cls-1 {
        fill: #6d7073;
        fill-rule: evenodd;
      }
    </style>
  </defs>
  <path d="M57.475,41.922 L57.475,47.311 C57.475,47.675 57.273,48.010 56.949,48.182 C56.801,48.261 56.638,48.300 56.475,48.300 C56.283,48.300 56.091,48.245 55.924,48.136 L50.135,44.350 C47.940,49.909 41.736,53.716 34.000,53.716 C33.731,53.716 33.467,53.704 33.204,53.691 L25.334,58.838 C25.167,58.947 24.975,59.002 24.782,59.002 C24.619,59.002 24.457,58.963 24.308,58.884 C23.984,58.712 23.782,58.377 23.782,58.013 L23.782,51.265 C19.402,48.903 17.000,44.867 17.000,39.837 C17.000,31.925 24.308,25.958 34.000,25.958 C35.085,25.958 36.135,26.043 37.154,26.187 C39.671,22.945 44.011,21.013 48.965,21.013 C56.966,21.013 63.000,25.953 63.000,32.504 C63.000,36.635 61.044,39.958 57.475,41.922 ZM19.000,39.837 C19.000,42.984 20.080,47.262 25.225,49.777 C25.566,49.944 25.782,50.288 25.782,50.664 L25.782,56.174 L32.376,51.861 C32.553,51.745 32.764,51.685 32.978,51.699 L33.190,51.709 C33.458,51.724 33.726,51.739 34.000,51.739 C42.552,51.739 49.000,46.622 49.000,39.837 C49.000,34.053 44.307,29.494 37.626,28.271 C37.446,28.287 37.266,28.253 37.096,28.168 C36.102,28.016 35.067,27.936 34.000,27.936 C25.448,27.936 19.000,33.052 19.000,39.837 ZM48.965,22.991 C45.049,22.991 41.593,24.330 39.384,26.623 C46.272,28.380 51.000,33.476 51.000,39.837 C51.000,40.707 50.897,41.549 50.727,42.366 L55.475,45.472 L55.475,41.324 C55.475,40.948 55.691,40.605 56.032,40.438 C60.138,38.430 61.000,35.015 61.000,32.504 C61.000,27.081 55.826,22.991 48.965,22.991 Z" class="cls-1"/>
</svg>
