<svg xmlns="http://www.w3.org/2000/svg" xmlns:xlink="http://www.w3.org/1999/xlink" preserveAspectRatio="xMidYMid" width="80" height="80" viewBox="0 0 80 80">
  <defs>
    <style>
      .cls-1 {
        fill: #202123;
        fill-rule: evenodd;
      }
    </style>
  </defs>
  <path d="M61.111,55.000 L18.889,55.000 C16.741,55.000 15.000,53.259 15.000,51.111 L15.000,51.108 C15.000,48.960 16.741,47.219 18.889,47.219 L61.111,47.219 C63.259,47.219 65.000,48.960 65.000,51.108 L65.000,51.111 C65.000,53.259 63.259,55.000 61.111,55.000 ZM61.125,43.875 L18.875,43.875 C16.735,43.875 15.000,42.140 15.000,40.000 C15.000,37.860 16.735,36.125 18.875,36.125 L61.125,36.125 C63.265,36.125 65.000,37.860 65.000,40.000 C65.000,42.140 63.265,43.875 61.125,43.875 ZM61.111,32.781 L18.889,32.781 C16.741,32.781 15.000,31.040 15.000,28.892 L15.000,28.889 C15.000,26.741 16.741,25.000 18.889,25.000 L61.111,25.000 C63.259,25.000 65.000,26.741 65.000,28.889 L65.000,28.892 C65.000,31.040 63.259,32.781 61.111,32.781 Z" class="cls-1"/>
</svg>
