<svg xmlns="http://www.w3.org/2000/svg" xmlns:xlink="http://www.w3.org/1999/xlink" preserveAspectRatio="xMidYMid" width="16" height="17" viewBox="0 0 16 17">
  <defs>
    <style>
      .cls-1 {
        fill: #bcc3c6;
        fill-rule: evenodd;
      }
    </style>
  </defs>
  <path d="M15.416,1.119 L14.963,1.119 L14.963,8.139 C14.963,9.040 14.211,9.772 13.286,9.772 L8.575,9.772 L8.575,13.120 L12.035,16.014 C12.277,16.217 12.305,16.574 12.097,16.810 C11.982,16.940 11.820,17.007 11.656,17.007 C11.523,17.007 11.388,16.962 11.279,16.871 L8.575,14.608 L8.575,16.442 C8.575,16.754 8.315,17.007 7.995,17.007 C7.675,17.007 7.415,16.754 7.415,16.442 L7.415,14.608 L4.711,16.871 C4.468,17.074 4.102,17.047 3.893,16.810 C3.685,16.574 3.713,16.217 3.956,16.014 L7.415,13.120 L7.415,9.772 L2.704,9.772 C1.779,9.772 1.027,9.040 1.027,8.139 L1.027,1.119 L0.574,1.119 C0.253,1.119 -0.006,0.866 -0.006,0.555 C-0.006,0.243 0.253,-0.010 0.574,-0.010 L1.606,-0.010 L14.384,-0.010 L15.416,-0.010 C15.737,-0.010 15.996,0.243 15.996,0.555 C15.996,0.866 15.737,1.119 15.416,1.119 ZM13.804,1.119 L2.186,1.119 L2.186,8.139 C2.186,8.417 2.419,8.643 2.704,8.643 L13.286,8.643 C13.572,8.643 13.804,8.417 13.804,8.139 L13.804,1.119 ZM6.796,7.591 C6.694,7.665 6.571,7.704 6.448,7.704 C6.360,7.704 6.271,7.684 6.189,7.644 C5.992,7.548 5.868,7.353 5.868,7.139 L5.868,2.623 C5.868,2.409 5.992,2.214 6.189,2.118 C6.387,2.023 6.620,2.044 6.796,2.171 L9.890,4.429 C10.036,4.536 10.122,4.703 10.122,4.881 C10.122,5.059 10.036,5.226 9.890,5.333 L6.796,7.591 ZM7.028,3.752 L7.028,6.010 L8.575,4.881 L7.028,3.752 Z" class="cls-1"/>
</svg>
