<svg xmlns="http://www.w3.org/2000/svg" xmlns:xlink="http://www.w3.org/1999/xlink" preserveAspectRatio="xMidYMid" width="80" height="80" viewBox="0 0 80 80">
  <defs>
    <style>
      .cls-1 {
        fill: #6d7073;
        fill-rule: evenodd;
      }
    </style>
  </defs>
  <path d="M60.906,42.499 C60.633,43.051 54.046,56.011 40.503,56.011 C26.962,56.011 20.375,43.051 20.102,42.499 C20.033,42.361 19.997,42.208 19.997,42.055 L19.997,41.921 C19.997,41.767 20.033,41.615 20.102,41.477 C20.217,41.244 21.460,38.806 23.867,36.065 L21.648,33.858 C21.253,33.465 21.253,32.829 21.648,32.437 C22.042,32.045 22.681,32.045 23.076,32.437 L25.251,34.601 C26.698,33.170 28.471,31.760 30.543,30.601 L29.027,27.953 C28.751,27.471 28.921,26.858 29.405,26.583 C29.888,26.308 30.506,26.476 30.783,26.959 L32.352,29.701 C34.457,28.773 36.824,28.121 39.494,27.992 L39.494,24.992 C39.494,24.437 39.946,23.987 40.504,23.987 C41.062,23.987 41.514,24.437 41.514,24.992 L41.514,27.992 C44.183,28.122 46.549,28.773 48.654,29.701 L50.224,26.959 C50.500,26.476 51.116,26.308 51.602,26.583 C52.086,26.858 52.256,27.471 51.980,27.953 L50.464,30.601 C52.536,31.760 54.309,33.169 55.756,34.600 L57.930,32.437 C58.325,32.045 58.964,32.045 59.358,32.437 C59.753,32.829 59.753,33.465 59.358,33.858 L57.140,36.064 C59.548,38.805 60.791,41.244 60.906,41.477 C60.975,41.615 61.011,41.767 61.011,41.921 L61.011,42.055 C61.011,42.208 60.975,42.361 60.906,42.499 ZM40.503,29.971 C29.437,29.971 23.284,39.905 22.116,41.987 C23.287,44.066 29.461,54.002 40.503,54.002 C51.571,54.002 57.724,44.070 58.892,41.989 C57.721,39.909 51.547,29.971 40.503,29.971 ZM40.486,46.019 C38.003,46.019 35.987,43.996 35.987,41.499 C35.987,39.007 38.003,36.982 40.486,36.982 C42.973,36.982 44.989,39.007 44.989,41.499 C44.989,43.996 42.973,46.019 40.486,46.019 Z" class="cls-1"/>
</svg>
