<svg xmlns="http://www.w3.org/2000/svg" xmlns:xlink="http://www.w3.org/1999/xlink" preserveAspectRatio="xMidYMid" width="16" height="20" viewBox="0 0 16 20">
  <defs>
    <style>
      .cls-1 {
        fill: #bcc3c6;
        fill-rule: evenodd;
      }
    </style>
  </defs>
  <path d="M15.983,19.418 C15.978,19.463 15.972,19.506 15.957,19.549 C15.942,19.593 15.920,19.631 15.897,19.670 C15.883,19.694 15.878,19.721 15.860,19.744 C15.849,19.758 15.835,19.768 15.823,19.781 C15.813,19.792 15.803,19.802 15.792,19.813 C15.738,19.864 15.679,19.906 15.614,19.935 C15.605,19.939 15.596,19.941 15.587,19.944 C15.513,19.974 15.435,19.992 15.356,19.992 C15.355,19.992 15.355,19.992 15.355,19.992 L15.355,19.992 L15.354,19.992 C15.276,19.992 15.199,19.974 15.124,19.945 C15.097,19.934 15.074,19.917 15.049,19.903 C15.017,19.885 14.983,19.874 14.954,19.850 L12.899,18.194 L10.848,19.850 C10.613,20.040 10.280,20.039 10.046,19.850 L7.995,18.194 L5.945,19.850 C5.710,20.040 5.378,20.039 5.142,19.850 L3.096,18.194 L1.046,19.850 C1.024,19.867 0.998,19.872 0.974,19.887 C0.935,19.911 0.898,19.934 0.854,19.949 C0.812,19.964 0.771,19.969 0.728,19.975 C0.699,19.979 0.674,19.992 0.645,19.992 C0.632,19.992 0.621,19.985 0.608,19.985 C0.564,19.982 0.523,19.970 0.481,19.958 C0.441,19.948 0.402,19.940 0.366,19.922 C0.331,19.905 0.302,19.880 0.270,19.856 C0.233,19.828 0.197,19.802 0.167,19.768 C0.159,19.758 0.148,19.754 0.140,19.744 C0.123,19.722 0.117,19.695 0.103,19.671 C0.080,19.632 0.057,19.594 0.042,19.550 C0.027,19.506 0.022,19.463 0.016,19.418 C0.013,19.390 -0.000,19.365 -0.000,19.336 L-0.000,0.654 C-0.000,0.624 0.013,0.600 0.016,0.571 C0.022,0.527 0.027,0.484 0.042,0.440 C0.057,0.397 0.079,0.359 0.103,0.319 C0.117,0.296 0.122,0.269 0.139,0.246 C0.147,0.236 0.159,0.232 0.167,0.222 C0.197,0.188 0.232,0.162 0.269,0.135 C0.301,0.111 0.331,0.085 0.367,0.068 C0.401,0.051 0.439,0.043 0.477,0.032 C0.521,0.020 0.563,0.007 0.609,0.005 C0.621,0.004 0.632,-0.002 0.645,-0.002 C0.673,-0.002 0.697,0.011 0.724,0.014 C0.769,0.020 0.811,0.025 0.854,0.041 C0.898,0.056 0.934,0.078 0.973,0.102 C0.996,0.117 1.023,0.122 1.045,0.140 L3.100,1.796 L5.152,0.140 C5.386,-0.050 5.719,-0.050 5.953,0.140 L8.004,1.796 L10.054,0.140 C10.289,-0.050 10.621,-0.050 10.856,0.140 L12.904,1.795 L14.954,0.140 C14.976,0.122 15.003,0.116 15.027,0.102 C15.065,0.078 15.102,0.056 15.144,0.041 C15.187,0.026 15.230,0.020 15.274,0.014 C15.302,0.011 15.326,-0.002 15.355,-0.002 C15.368,-0.002 15.378,0.004 15.391,0.005 C15.435,0.008 15.477,0.020 15.520,0.032 C15.559,0.042 15.598,0.050 15.633,0.068 C15.668,0.085 15.697,0.110 15.729,0.134 C15.766,0.161 15.802,0.187 15.832,0.222 C15.841,0.232 15.852,0.236 15.860,0.246 C15.877,0.268 15.882,0.295 15.896,0.319 C15.920,0.358 15.942,0.396 15.957,0.440 C15.972,0.483 15.978,0.527 15.983,0.572 C15.987,0.600 16.000,0.624 16.000,0.654 L16.000,19.336 C16.000,19.366 15.987,19.390 15.983,19.418 ZM14.710,2.012 L13.305,3.146 C13.070,3.336 12.737,3.335 12.503,3.146 L10.455,1.491 L8.405,3.146 C8.170,3.336 7.838,3.336 7.603,3.147 L5.552,1.491 L3.501,3.147 C3.384,3.242 3.242,3.289 3.100,3.289 C2.959,3.289 2.817,3.242 2.700,3.147 L1.289,2.010 L1.289,17.978 L2.695,16.843 C2.930,16.653 3.262,16.654 3.497,16.843 L5.544,18.499 L7.595,16.843 C7.829,16.654 8.162,16.654 8.396,16.843 L10.447,18.499 L12.498,16.843 C12.733,16.654 13.064,16.653 13.299,16.843 L14.710,17.980 L14.710,2.012 ZM11.981,14.129 L4.018,14.129 C3.662,14.129 3.373,13.835 3.373,13.473 C3.373,13.110 3.662,12.817 4.018,12.817 L11.981,12.817 C12.337,12.817 12.626,13.110 12.626,13.473 C12.626,13.835 12.337,14.129 11.981,14.129 ZM4.018,9.339 L8.568,9.339 C8.924,9.339 9.213,9.633 9.213,9.995 C9.213,10.357 8.924,10.651 8.568,10.651 L4.018,10.651 C3.662,10.651 3.373,10.357 3.373,9.995 C3.373,9.633 3.662,9.339 4.018,9.339 ZM11.981,7.173 L4.018,7.173 C3.662,7.173 3.373,6.879 3.373,6.517 C3.373,6.155 3.662,5.861 4.018,5.861 L11.981,5.861 C12.337,5.861 12.626,6.155 12.626,6.517 C12.626,6.879 12.337,7.173 11.981,7.173 Z" class="cls-1"/>
</svg>
