<svg xmlns="http://www.w3.org/2000/svg" xmlns:xlink="http://www.w3.org/1999/xlink" preserveAspectRatio="xMidYMid" width="80" height="80" viewBox="0 0 80 80">
  <defs>
    <style>
      .cls-1 {
        fill: #fff;
        fill-rule: evenodd;
      }
    </style>
  </defs>
  <path d="M47.773,50.663 L47.773,64.500 C47.773,65.328 47.094,66.000 46.256,66.000 L33.732,66.000 C32.894,66.000 32.215,65.328 32.215,64.500 L32.215,50.663 C29.842,50.376 28.000,48.373 28.000,45.951 L28.000,36.288 C28.000,33.670 30.154,31.540 32.802,31.540 L36.438,31.540 C37.011,31.540 37.536,31.861 37.794,32.367 L39.994,36.696 L42.194,32.367 C42.452,31.861 42.977,31.540 43.550,31.540 L47.186,31.540 C49.834,31.540 51.988,33.670 51.988,36.288 L51.988,45.951 C51.988,48.373 50.145,50.376 47.773,50.663 ZM48.953,36.288 C48.953,35.324 48.161,34.541 47.186,34.541 L44.486,34.541 L41.350,40.711 C40.834,41.724 39.154,41.724 38.638,40.711 L35.502,34.541 L32.802,34.541 C31.827,34.541 31.035,35.324 31.035,36.288 L31.035,45.951 C31.035,46.915 31.827,47.698 32.802,47.698 L33.732,47.698 C34.570,47.698 35.249,48.370 35.249,49.198 L35.249,63.000 L44.739,63.000 L44.739,49.198 C44.739,48.370 45.418,47.698 46.256,47.698 L47.186,47.698 C48.161,47.698 48.953,46.915 48.953,45.951 L48.953,36.288 ZM39.994,31.293 C35.450,31.293 31.753,27.638 31.753,23.146 C31.753,18.654 35.450,15.000 39.994,15.000 C44.538,15.000 48.235,18.654 48.235,23.146 C48.235,27.638 44.538,31.293 39.994,31.293 ZM39.994,18.000 C37.123,18.000 34.788,20.308 34.788,23.146 C34.788,25.985 37.123,28.293 39.994,28.293 C42.865,28.293 45.200,25.985 45.200,23.146 C45.200,20.308 42.865,18.000 39.994,18.000 Z" class="cls-1"/>
</svg>
