<svg xmlns="http://www.w3.org/2000/svg" xmlns:xlink="http://www.w3.org/1999/xlink" preserveAspectRatio="xMidYMid" width="80" height="80" viewBox="0 0 80 80">
  <defs>
    <style>
      .cls-1 {
        fill: #6d7073;
        fill-rule: evenodd;
      }
    </style>
  </defs>
  <path d="M64.234,45.689 L64.234,54.875 C64.234,55.425 63.790,55.870 63.242,55.870 L55.050,55.870 C54.502,55.870 54.057,55.425 54.057,54.875 L54.057,45.689 C52.505,45.499 51.300,44.168 51.300,42.560 L51.300,36.145 C51.300,34.408 52.709,32.994 54.441,32.994 L63.850,32.994 C65.582,32.994 66.992,34.408 66.992,36.145 L66.992,42.560 C66.992,44.168 65.786,45.499 64.234,45.689 ZM65.006,36.145 C65.006,35.506 64.488,34.986 63.850,34.986 L54.441,34.986 C53.803,34.986 53.285,35.506 53.285,36.145 L53.285,42.560 C53.285,43.201 53.803,43.720 54.441,43.720 L55.050,43.720 C55.598,43.720 56.042,44.167 56.042,44.717 L56.042,53.879 L62.249,53.879 L62.249,44.717 C62.249,44.167 62.694,43.720 63.242,43.720 L63.850,43.720 C64.488,43.720 65.006,43.201 65.006,42.560 L65.006,36.145 ZM59.146,32.830 C56.173,32.830 53.755,30.403 53.755,27.421 C53.755,24.438 56.173,22.012 59.146,22.012 C62.118,22.012 64.537,24.438 64.537,27.421 C64.537,30.403 62.118,32.830 59.146,32.830 ZM59.146,24.004 C57.268,24.004 55.740,25.537 55.740,27.421 C55.740,29.306 57.268,30.838 59.146,30.838 C61.024,30.838 62.552,29.306 62.552,27.421 C62.552,25.537 61.024,24.004 59.146,24.004 ZM45.589,47.806 L45.589,56.992 C45.589,57.542 45.145,57.988 44.597,57.988 L36.404,57.988 C35.856,57.988 35.411,57.542 35.411,56.992 L35.411,47.806 C33.860,47.616 32.654,46.285 32.654,44.678 L32.654,38.263 C32.654,36.525 34.064,35.111 35.796,35.111 L45.205,35.111 C46.937,35.111 48.346,36.525 48.346,38.263 L48.346,44.678 C48.346,46.285 47.140,47.615 45.589,47.806 ZM46.361,38.263 C46.361,37.623 45.842,37.103 45.205,37.103 L35.796,37.103 C35.158,37.103 34.639,37.623 34.639,38.263 L34.639,44.678 C34.639,45.318 35.158,45.838 35.796,45.838 L36.404,45.838 C36.952,45.838 37.397,46.284 37.397,46.834 L37.397,55.996 L43.604,55.996 L43.604,46.834 C43.604,46.284 44.048,45.838 44.597,45.838 L45.205,45.838 C45.842,45.838 46.361,45.318 46.361,44.678 L46.361,38.263 ZM40.500,34.947 C37.528,34.947 35.109,32.521 35.109,29.539 C35.109,26.556 37.528,24.130 40.500,24.130 C43.473,24.130 45.891,26.556 45.891,29.539 C45.891,32.521 43.473,34.947 40.500,34.947 ZM40.500,26.121 C38.622,26.121 37.095,27.654 37.095,29.539 C37.095,31.423 38.622,32.955 40.500,32.955 C42.378,32.955 43.906,31.423 43.906,29.539 C43.906,27.654 42.378,26.121 40.500,26.121 ZM26.943,45.689 L26.943,54.875 C26.943,55.425 26.499,55.870 25.951,55.870 L17.759,55.870 C17.211,55.870 16.766,55.425 16.766,54.875 L16.766,45.689 C15.215,45.499 14.009,44.168 14.009,42.560 L14.009,36.145 C14.009,34.408 15.418,32.994 17.150,32.994 L26.559,32.994 C28.291,32.994 29.701,34.408 29.701,36.145 L29.701,42.560 C29.701,44.168 28.495,45.499 26.943,45.689 ZM27.715,36.145 C27.715,35.506 27.197,34.986 26.559,34.986 L17.150,34.986 C16.513,34.986 15.994,35.506 15.994,36.145 L15.994,42.560 C15.994,43.201 16.513,43.720 17.150,43.720 L17.759,43.720 C18.307,43.720 18.751,44.167 18.751,44.717 L18.751,53.879 L24.958,53.879 L24.958,44.717 C24.958,44.167 25.403,43.720 25.951,43.720 L26.559,43.720 C27.197,43.720 27.715,43.201 27.715,42.560 L27.715,36.145 ZM21.855,32.830 C18.882,32.830 16.464,30.403 16.464,27.421 C16.464,24.438 18.882,22.012 21.855,22.012 C24.827,22.012 27.246,24.438 27.246,27.421 C27.246,30.403 24.827,32.830 21.855,32.830 ZM21.855,24.004 C19.977,24.004 18.449,25.537 18.449,27.421 C18.449,29.306 19.977,30.838 21.855,30.838 C23.733,30.838 25.261,29.306 25.261,27.421 C25.261,25.537 23.733,24.004 21.855,24.004 Z" class="cls-1"/>
</svg>
