<svg xmlns="http://www.w3.org/2000/svg" xmlns:xlink="http://www.w3.org/1999/xlink" preserveAspectRatio="xMidYMid" width="80" height="80" viewBox="0 0 80 80">
  <defs>
    <style>
      .cls-1 {
        fill: #3d6d91;
        fill-rule: evenodd;
      }
    </style>
  </defs>
  <path d="M57.295,52.329 L41.039,52.329 L41.039,55.912 L47.553,55.912 C48.128,55.912 48.594,56.378 48.594,56.953 C48.594,57.527 48.128,57.993 47.553,57.993 L32.444,57.993 C31.869,57.993 31.403,57.527 31.403,56.953 C31.403,56.378 31.869,55.912 32.444,55.912 L38.958,55.912 L38.958,52.329 L22.703,52.329 C21.211,52.329 19.997,51.116 19.997,49.625 L19.997,25.706 C19.997,24.215 21.211,23.002 22.703,23.002 L57.295,23.002 C58.786,23.002 60.000,24.215 60.000,25.706 L60.000,49.625 C60.000,51.116 58.786,52.329 57.295,52.329 ZM57.919,25.706 C57.919,25.368 57.633,25.082 57.295,25.082 L22.703,25.082 C22.364,25.082 22.078,25.368 22.078,25.706 L22.078,49.625 C22.078,49.963 22.364,50.249 22.703,50.249 L57.295,50.249 C57.633,50.249 57.919,49.963 57.919,49.625 L57.919,25.706 ZM50.318,46.749 L45.945,46.749 C45.370,46.749 44.904,46.284 44.904,45.709 L44.904,29.622 C44.904,29.047 45.370,28.582 45.945,28.582 L50.318,28.582 C50.893,28.582 51.358,29.047 51.358,29.622 L51.358,45.709 C51.358,46.284 50.893,46.749 50.318,46.749 ZM49.277,30.662 L46.985,30.662 L46.985,44.669 L49.277,44.669 L49.277,30.662 ZM42.184,46.749 L37.811,46.749 C37.237,46.749 36.771,46.284 36.771,45.709 L36.771,34.319 C36.771,33.744 37.237,33.279 37.811,33.279 L42.184,33.279 C42.759,33.279 43.225,33.744 43.225,34.319 L43.225,45.709 C43.225,46.284 42.759,46.749 42.184,46.749 ZM41.144,35.359 L38.852,35.359 L38.852,44.669 L41.144,44.669 L41.144,35.359 ZM34.052,46.749 L29.679,46.749 C29.104,46.749 28.638,46.284 28.638,45.709 L28.638,39.015 C28.638,38.441 29.104,37.975 29.679,37.975 L34.052,37.975 C34.627,37.975 35.092,38.441 35.092,39.015 L35.092,45.709 C35.092,46.284 34.627,46.749 34.052,46.749 ZM33.011,40.055 L30.719,40.055 L30.719,44.669 L33.011,44.669 L33.011,40.055 Z" class="cls-1"/>
</svg>
