<svg xmlns="http://www.w3.org/2000/svg" xmlns:xlink="http://www.w3.org/1999/xlink" preserveAspectRatio="xMidYMid" width="80" height="80" viewBox="0 0 80 80">
  <defs>
    <style>
      .cls-1 {
        fill: #fff;
        fill-rule: evenodd;
      }
    </style>
  </defs>
  <path d="M47.685,53.003 L24.388,53.003 C22.529,53.003 21.015,51.489 21.015,49.627 L21.015,30.368 C21.015,28.507 22.529,26.992 24.388,26.992 L47.685,26.992 C49.544,26.992 51.056,28.507 51.056,30.368 L51.056,35.412 L58.407,29.904 C58.708,29.680 59.110,29.643 59.446,29.812 C59.782,29.980 59.994,30.324 59.994,30.700 L59.997,49.295 C59.997,49.671 59.785,50.016 59.449,50.184 C59.110,50.352 58.711,50.317 58.409,50.091 L51.056,44.579 L51.056,49.627 C51.056,51.489 49.544,53.003 47.685,53.003 ZM24.388,28.980 C23.623,28.980 23.001,29.603 23.001,30.368 L23.001,49.627 C23.001,50.392 23.623,51.015 24.388,51.015 L47.685,51.015 C48.449,51.015 49.070,50.392 49.070,49.627 L49.070,42.594 C49.070,42.218 49.283,41.873 49.619,41.705 C49.955,41.534 50.356,41.572 50.658,41.797 L58.012,47.309 L58.009,32.685 L50.657,38.193 C50.358,38.419 49.957,38.456 49.618,38.286 C49.283,38.117 49.070,37.773 49.070,37.397 L49.070,30.368 C49.070,29.603 48.449,28.980 47.685,28.980 L24.388,28.980 Z" class="cls-1"/>
</svg>
