<svg xmlns="http://www.w3.org/2000/svg" xmlns:xlink="http://www.w3.org/1999/xlink" preserveAspectRatio="xMidYMid" width="80" height="80" viewBox="0 0 80 80">
  <defs>
    <style>
      .cls-1 {
        fill: #3d6d91;
        fill-rule: evenodd;
      }
    </style>
  </defs>
  <path d="M58.938,53.996 L21.061,53.996 C20.474,53.996 19.998,53.514 19.998,52.918 L19.998,26.066 C19.998,25.470 20.474,24.988 21.061,24.988 L58.938,24.988 C59.525,24.988 60.001,25.470 60.001,26.066 L60.001,52.918 C60.001,53.514 59.525,53.996 58.938,53.996 ZM57.875,27.143 L22.124,27.143 L22.124,51.841 L57.875,51.841 L57.875,27.143 ZM26.133,29.491 C26.720,29.491 27.196,29.973 27.196,30.569 L27.196,48.098 C27.196,48.693 26.720,49.175 26.133,49.175 C25.546,49.175 25.070,48.693 25.070,48.098 L25.070,30.569 C25.070,29.973 25.546,29.491 26.133,29.491 ZM30.755,29.491 C31.342,29.491 31.818,29.973 31.818,30.569 L31.818,44.548 C31.818,45.143 31.342,45.625 30.755,45.625 C30.168,45.625 29.692,45.143 29.692,44.548 L29.692,30.569 C29.692,29.973 30.168,29.491 30.755,29.491 ZM35.377,29.491 C35.964,29.491 36.440,29.973 36.440,30.569 L36.440,44.548 C36.440,45.143 35.964,45.625 35.377,45.625 C34.790,45.625 34.314,45.143 34.314,44.548 L34.314,30.569 C34.314,29.973 34.790,29.491 35.377,29.491 ZM39.999,29.491 C40.586,29.491 41.062,29.973 41.062,30.569 L41.062,48.098 C41.062,48.693 40.586,49.175 39.999,49.175 C39.412,49.175 38.937,48.693 38.937,48.098 L38.937,30.569 C38.937,29.973 39.412,29.491 39.999,29.491 ZM44.621,29.491 C45.208,29.491 45.684,29.973 45.684,30.569 L45.684,44.548 C45.684,45.143 45.208,45.625 44.621,45.625 C44.034,45.625 43.559,45.143 43.559,44.548 L43.559,30.569 C43.559,29.973 44.034,29.491 44.621,29.491 ZM49.244,29.491 C49.831,29.491 50.306,29.973 50.306,30.569 L50.306,44.548 C50.306,45.143 49.831,45.625 49.244,45.625 C48.657,45.625 48.181,45.143 48.181,44.548 L48.181,30.569 C48.181,29.973 48.657,29.491 49.244,29.491 ZM55.252,28.492 C55.897,28.492 56.421,29.022 56.421,29.677 L56.421,48.959 C56.421,49.614 55.897,50.144 55.252,50.144 C54.606,50.144 54.083,49.614 54.083,48.959 L54.083,29.677 C54.083,29.022 54.606,28.492 55.252,28.492 Z" class="cls-1"/>
</svg>
