<svg xmlns="http://www.w3.org/2000/svg" xmlns:xlink="http://www.w3.org/1999/xlink" preserveAspectRatio="xMidYMid" width="80" height="80" viewBox="0 0 80 80">
  <defs>
    <style>
      .cls-1 {
        fill: #3d6d91;
        fill-rule: evenodd;
      }
    </style>
  </defs>
  <path d="M56.669,56.736 L53.185,56.736 C53.186,56.764 53.201,56.788 53.201,56.816 L53.201,60.691 C53.201,62.516 51.712,64.001 49.883,64.001 L23.329,64.001 C21.500,64.001 20.012,62.516 20.012,60.691 L20.012,26.587 C20.012,24.761 21.500,23.276 23.329,23.276 L26.797,23.276 L26.797,19.322 C26.797,17.497 28.285,16.012 30.114,16.012 L56.669,16.012 C58.498,16.012 59.986,17.497 59.986,19.322 L59.986,53.426 C59.986,55.251 58.498,56.736 56.669,56.736 ZM26.797,53.426 L26.797,25.823 L23.329,25.823 C22.914,25.823 22.563,26.173 22.563,26.587 L22.563,60.691 C22.563,61.105 22.914,61.455 23.329,61.455 L49.883,61.455 C50.298,61.455 50.649,61.105 50.649,60.691 L50.649,56.816 C50.649,56.788 50.663,56.764 50.665,56.736 L30.114,56.736 C28.285,56.736 26.797,55.251 26.797,53.426 ZM57.435,19.322 C57.435,18.908 57.084,18.558 56.669,18.558 L30.114,18.558 C29.700,18.558 29.349,18.908 29.349,19.322 L29.349,53.426 C29.349,53.840 29.700,54.190 30.114,54.190 L56.669,54.190 C57.084,54.190 57.435,53.840 57.435,53.426 L57.435,19.322 ZM53.760,44.111 C53.629,44.153 53.495,44.175 53.361,44.175 C52.964,44.175 52.580,43.988 52.334,43.657 C52.221,43.507 49.355,39.834 42.797,39.834 C42.793,39.834 42.789,39.831 42.785,39.831 C42.778,39.831 42.773,39.834 42.765,39.834 L41.387,39.834 C41.851,43.220 44.018,44.792 44.043,44.810 C44.354,45.027 44.552,45.370 44.584,45.748 C44.615,46.125 44.476,46.497 44.205,46.763 L42.186,48.740 C41.940,48.981 41.617,49.104 41.293,49.104 C41.028,49.104 40.762,49.022 40.536,48.857 C36.900,46.185 35.929,41.440 35.678,39.492 C33.624,38.743 32.147,36.791 32.147,34.486 L32.147,33.333 C32.147,30.384 34.551,27.985 37.505,27.985 L42.723,27.985 C42.741,27.985 42.753,27.990 42.770,27.991 C42.779,27.990 42.787,27.985 42.797,27.985 C49.428,27.985 52.307,24.200 52.334,24.162 C52.662,23.719 53.240,23.539 53.760,23.708 C54.283,23.880 54.637,24.368 54.637,24.918 L54.637,42.901 C54.637,43.451 54.283,43.939 53.760,44.111 ZM41.234,46.104 L41.466,45.877 C40.466,44.784 39.116,42.796 38.804,39.834 L38.314,39.834 C38.603,41.460 39.349,44.219 41.234,46.104 ZM41.521,33.333 C41.521,32.142 41.512,31.195 41.501,30.532 L37.505,30.532 C35.957,30.532 34.698,31.788 34.698,33.333 L34.698,34.486 C34.698,36.031 35.957,37.287 37.505,37.287 L41.512,37.287 C41.517,36.604 41.521,35.649 41.521,34.486 L41.521,33.333 ZM52.085,27.789 C50.408,28.968 47.777,30.246 44.073,30.490 L44.073,33.333 L44.073,34.486 L44.073,37.329 C47.777,37.573 50.408,38.851 52.085,40.029 L52.085,27.789 Z" class="cls-1"/>
</svg>
