<svg xmlns="http://www.w3.org/2000/svg" xmlns:xlink="http://www.w3.org/1999/xlink" preserveAspectRatio="xMidYMid" width="80" height="80" viewBox="0 0 80 80">
  <defs>
    <style>
      .cls-1 {
        fill: #3d6d91;
        fill-rule: evenodd;
      }
    </style>
  </defs>
  <path d="M51.009,55.987 L50.289,55.987 L50.289,51.767 C50.289,50.766 49.986,47.247 46.074,44.036 C45.115,43.248 43.980,42.056 44.015,40.844 C44.042,39.931 44.719,38.987 46.027,38.037 C49.805,35.301 50.289,31.963 50.289,29.361 L50.289,25.029 L51.009,25.029 C51.550,25.029 51.987,24.575 51.987,24.016 C51.987,23.457 51.550,23.004 51.009,23.004 L29.988,23.004 C29.448,23.004 29.011,23.457 29.011,24.016 C29.011,24.575 29.448,25.029 29.988,25.029 L30.708,25.029 L30.708,29.361 C30.708,31.963 31.192,35.301 34.970,38.037 C36.279,38.987 36.956,39.931 36.982,40.844 C37.017,42.056 35.882,43.249 34.924,44.036 C31.012,47.247 30.708,50.766 30.708,51.767 L30.708,55.987 L29.988,55.987 C29.448,55.987 29.011,56.440 29.011,57.000 C29.011,57.559 29.448,58.012 29.988,58.012 L51.009,58.012 C51.550,58.012 51.987,57.559 51.987,57.000 C51.987,56.440 51.550,55.987 51.009,55.987 ZM48.334,25.029 L48.334,29.361 C48.334,30.386 48.245,31.484 47.864,32.582 L33.134,32.582 C32.753,31.484 32.664,30.386 32.664,29.361 L32.664,25.029 L48.334,25.029 ZM36.139,45.622 C38.042,44.058 38.984,42.430 38.936,40.785 C38.891,39.198 37.934,37.715 36.092,36.379 C35.308,35.810 34.703,35.215 34.233,34.607 L46.765,34.607 C46.295,35.215 45.690,35.811 44.906,36.379 C43.063,37.715 42.106,39.197 42.061,40.783 C42.013,42.429 42.954,44.058 44.859,45.622 C48.084,48.269 48.334,50.995 48.334,51.767 L48.334,52.242 C46.581,51.400 43.511,50.171 40.498,50.171 C37.486,50.171 34.417,51.400 32.664,52.242 L32.664,51.767 C32.664,50.995 32.914,48.269 36.139,45.622 ZM32.664,54.496 C33.904,53.837 37.313,52.196 40.498,52.196 C43.675,52.196 47.091,53.838 48.334,54.497 L48.334,55.987 L32.664,55.987 L32.664,54.496 Z" class="cls-1"/>
</svg>
