<svg xmlns="http://www.w3.org/2000/svg" xmlns:xlink="http://www.w3.org/1999/xlink" preserveAspectRatio="xMidYMid" width="80" height="80" viewBox="0 0 80 80">
  <defs>
    <style>
      .cls-1 {
        fill: #3f3f3f;
        fill-rule: evenodd;
      }
    </style>
  </defs>
  <path d="M59.092,52.845 L41.618,52.845 L41.618,56.737 L48.620,56.737 C49.238,56.737 49.739,57.243 49.739,57.867 C49.739,58.491 49.238,58.997 48.620,58.997 L32.378,58.997 C31.760,58.997 31.259,58.491 31.259,57.867 C31.259,57.243 31.760,56.737 32.378,56.737 L39.381,56.737 L39.381,52.845 L21.906,52.845 C20.303,52.845 18.998,51.527 18.998,49.908 L18.998,23.931 C18.998,22.312 20.303,20.995 21.906,20.995 L59.092,20.995 C60.696,20.995 62.000,22.312 62.000,23.931 L62.000,49.908 C62.000,51.527 60.696,52.845 59.092,52.845 ZM59.763,23.931 C59.763,23.564 59.456,23.254 59.092,23.254 L21.906,23.254 C21.542,23.254 21.235,23.564 21.235,23.931 L21.235,49.908 C21.235,50.276 21.542,50.586 21.906,50.586 L59.092,50.586 C59.456,50.586 59.763,50.276 59.763,49.908 L59.763,23.931 ZM47.534,46.842 C46.916,46.842 46.416,46.337 46.416,45.713 L46.416,33.184 C46.416,32.560 46.916,32.054 47.534,32.054 C48.152,32.054 48.653,32.560 48.653,33.184 L48.653,45.713 C48.653,46.337 48.152,46.842 47.534,46.842 ZM44.916,30.410 C44.586,30.410 44.260,30.264 44.040,29.984 L43.683,29.531 C42.472,34.092 38.356,37.464 33.464,37.464 C32.846,37.464 32.346,36.959 32.346,36.335 C32.346,35.711 32.846,35.205 33.464,35.205 C37.134,35.205 40.251,32.799 41.370,29.470 L41.144,29.651 C40.660,30.040 39.956,29.958 39.573,29.470 C39.188,28.982 39.268,28.271 39.752,27.883 L42.239,25.884 C42.279,25.852 42.326,25.843 42.368,25.817 C42.434,25.777 42.497,25.739 42.571,25.713 C42.646,25.686 42.720,25.676 42.797,25.667 C42.845,25.660 42.887,25.638 42.936,25.638 C42.957,25.638 42.975,25.650 42.997,25.651 C43.076,25.655 43.150,25.676 43.226,25.698 C43.292,25.716 43.357,25.729 43.417,25.758 C43.479,25.788 43.531,25.832 43.587,25.874 C43.650,25.921 43.712,25.965 43.764,26.024 C43.778,26.040 43.798,26.048 43.811,26.065 L45.790,28.577 C46.175,29.065 46.095,29.776 45.611,30.165 C45.406,30.330 45.160,30.410 44.916,30.410 ZM33.464,40.029 C34.082,40.029 34.583,40.535 34.583,41.159 L34.583,45.713 C34.583,46.337 34.082,46.842 33.464,46.842 C32.846,46.842 32.346,46.337 32.346,45.713 L32.346,41.159 C32.346,40.535 32.846,40.029 33.464,40.029 ZM38.154,37.156 C38.772,37.156 39.273,37.662 39.273,38.286 L39.273,45.713 C39.273,46.337 38.772,46.842 38.154,46.842 C37.536,46.842 37.036,46.337 37.036,45.713 L37.036,38.286 C37.036,37.662 37.536,37.156 38.154,37.156 ZM42.844,35.092 C43.462,35.092 43.963,35.598 43.963,36.222 L43.963,45.713 C43.963,46.337 43.462,46.842 42.844,46.842 C42.227,46.842 41.726,46.337 41.726,45.713 L41.726,36.222 C41.726,35.598 42.227,35.092 42.844,35.092 Z" class="cls-1"/>
</svg>
