<svg xmlns="http://www.w3.org/2000/svg" xmlns:xlink="http://www.w3.org/1999/xlink" preserveAspectRatio="xMidYMid" width="21" height="16" viewBox="0 0 21 16">
  <defs>
    <style>
      .cls-1 {
        fill: #b9bec2;
        fill-rule: evenodd;
      }
    </style>
  </defs>
  <path d="M20.488,16.008 L15.263,16.008 C14.980,16.008 14.751,15.796 14.751,15.533 L14.751,12.179 C14.751,11.916 14.980,11.704 15.263,11.704 L20.488,11.704 C20.771,11.704 21.000,11.916 21.000,12.179 L21.000,15.533 C21.000,15.796 20.771,16.008 20.488,16.008 ZM19.975,12.653 L15.775,12.653 L15.775,15.058 L19.975,15.058 L19.975,12.653 ZM20.488,10.534 L15.263,10.534 C14.980,10.534 14.751,10.322 14.751,10.059 L14.751,6.704 C14.751,6.442 14.980,6.230 15.263,6.230 L20.488,6.230 C20.771,6.230 21.000,6.442 21.000,6.704 L21.000,10.059 C21.000,10.322 20.771,10.534 20.488,10.534 ZM19.975,7.179 L15.775,7.179 L15.775,9.584 L19.975,9.584 L19.975,7.179 ZM20.488,5.308 L15.263,5.308 C14.980,5.308 14.751,5.096 14.751,4.833 L14.751,1.479 C14.751,1.217 14.980,1.004 15.263,1.004 L20.488,1.004 C20.771,1.004 21.000,1.217 21.000,1.479 L21.000,4.833 C21.000,5.096 20.771,5.308 20.488,5.308 ZM19.975,1.954 L15.775,1.954 L15.775,4.359 L19.975,4.359 L19.975,1.954 ZM13.112,16.008 L7.888,16.008 C7.604,16.008 7.375,15.796 7.375,15.533 L7.375,12.179 C7.375,11.916 7.604,11.704 7.888,11.704 L13.112,11.704 C13.395,11.704 13.625,11.916 13.625,12.179 L13.625,15.533 C13.625,15.796 13.395,16.008 13.112,16.008 ZM12.600,12.653 L8.400,12.653 L8.400,15.058 L12.600,15.058 L12.600,12.653 ZM13.112,10.534 L7.888,10.534 C7.604,10.534 7.375,10.322 7.375,10.059 L7.375,6.704 C7.375,6.442 7.604,6.230 7.888,6.230 L13.112,6.230 C13.395,6.230 13.625,6.442 13.625,6.704 L13.625,10.059 C13.625,10.322 13.395,10.534 13.112,10.534 ZM12.600,7.179 L8.400,7.179 L8.400,9.584 L12.600,9.584 L12.600,7.179 ZM13.112,5.308 L7.888,5.308 C7.604,5.308 7.375,5.096 7.375,4.833 L7.375,1.479 C7.375,1.217 7.604,1.004 7.888,1.004 L13.112,1.004 C13.395,1.004 13.625,1.217 13.625,1.479 L13.625,4.833 C13.625,5.096 13.395,5.308 13.112,5.308 ZM12.600,1.954 L8.400,1.954 L8.400,4.359 L12.600,4.359 L12.600,1.954 ZM5.737,16.008 L0.512,16.008 C0.229,16.008 -0.000,15.796 -0.000,15.533 L-0.000,12.179 C-0.000,11.916 0.229,11.704 0.512,11.704 L5.737,11.704 C6.020,11.704 6.249,11.916 6.249,12.179 L6.249,15.533 C6.249,15.796 6.020,16.008 5.737,16.008 ZM5.225,12.653 L1.024,12.653 L1.024,15.058 L5.225,15.058 L5.225,12.653 ZM5.737,10.534 L0.512,10.534 C0.229,10.534 -0.000,10.322 -0.000,10.059 L-0.000,6.704 C-0.000,6.442 0.229,6.230 0.512,6.230 L5.737,6.230 C6.020,6.230 6.249,6.442 6.249,6.704 L6.249,10.059 C6.249,10.322 6.020,10.534 5.737,10.534 ZM5.225,7.179 L1.024,7.179 L1.024,9.584 L5.225,9.584 L5.225,7.179 ZM5.737,5.308 L0.512,5.308 C0.229,5.308 -0.000,5.096 -0.000,4.833 L-0.000,1.479 C-0.000,1.217 0.229,1.004 0.512,1.004 L5.737,1.004 C6.020,1.004 6.249,1.217 6.249,1.479 L6.249,4.833 C6.249,5.096 6.020,5.308 5.737,5.308 ZM5.225,1.954 L1.024,1.954 L1.024,4.359 L5.225,4.359 L5.225,1.954 Z" class="cls-1"/>
</svg>
