<svg xmlns="http://www.w3.org/2000/svg" xmlns:xlink="http://www.w3.org/1999/xlink" preserveAspectRatio="xMidYMid" width="50" height="50" viewBox="0 0 50 50">
  <defs>
    <style>
      .cls-1 {
        fill: #fff;
        fill-rule: evenodd;
      }
    </style>
  </defs>
  <path d="M35.488,33.008 L30.263,33.008 C29.980,33.008 29.751,32.796 29.751,32.533 L29.751,29.179 C29.751,28.916 29.980,28.704 30.263,28.704 L35.488,28.704 C35.771,28.704 36.000,28.916 36.000,29.179 L36.000,32.533 C36.000,32.796 35.771,33.008 35.488,33.008 ZM34.975,29.653 L30.775,29.653 L30.775,32.058 L34.975,32.058 L34.975,29.653 ZM35.488,27.534 L30.263,27.534 C29.980,27.534 29.751,27.322 29.751,27.059 L29.751,23.704 C29.751,23.442 29.980,23.230 30.263,23.230 L35.488,23.230 C35.771,23.230 36.000,23.442 36.000,23.704 L36.000,27.059 C36.000,27.322 35.771,27.534 35.488,27.534 ZM34.975,24.179 L30.775,24.179 L30.775,26.584 L34.975,26.584 L34.975,24.179 ZM35.488,22.308 L30.263,22.308 C29.980,22.308 29.751,22.096 29.751,21.833 L29.751,18.479 C29.751,18.217 29.980,18.004 30.263,18.004 L35.488,18.004 C35.771,18.004 36.000,18.217 36.000,18.479 L36.000,21.833 C36.000,22.096 35.771,22.308 35.488,22.308 ZM34.975,18.954 L30.775,18.954 L30.775,21.359 L34.975,21.359 L34.975,18.954 ZM28.112,33.008 L22.888,33.008 C22.604,33.008 22.375,32.796 22.375,32.533 L22.375,29.179 C22.375,28.916 22.604,28.704 22.888,28.704 L28.112,28.704 C28.395,28.704 28.625,28.916 28.625,29.179 L28.625,32.533 C28.625,32.796 28.395,33.008 28.112,33.008 ZM27.600,29.653 L23.400,29.653 L23.400,32.058 L27.600,32.058 L27.600,29.653 ZM28.112,27.534 L22.888,27.534 C22.604,27.534 22.375,27.322 22.375,27.059 L22.375,23.704 C22.375,23.442 22.604,23.230 22.888,23.230 L28.112,23.230 C28.395,23.230 28.625,23.442 28.625,23.704 L28.625,27.059 C28.625,27.322 28.395,27.534 28.112,27.534 ZM27.600,24.179 L23.400,24.179 L23.400,26.584 L27.600,26.584 L27.600,24.179 ZM28.112,22.308 L22.888,22.308 C22.604,22.308 22.375,22.096 22.375,21.833 L22.375,18.479 C22.375,18.217 22.604,18.004 22.888,18.004 L28.112,18.004 C28.395,18.004 28.625,18.217 28.625,18.479 L28.625,21.833 C28.625,22.096 28.395,22.308 28.112,22.308 ZM27.600,18.954 L23.400,18.954 L23.400,21.359 L27.600,21.359 L27.600,18.954 ZM20.737,33.008 L15.512,33.008 C15.229,33.008 15.000,32.796 15.000,32.533 L15.000,29.179 C15.000,28.916 15.229,28.704 15.512,28.704 L20.737,28.704 C21.020,28.704 21.249,28.916 21.249,29.179 L21.249,32.533 C21.249,32.796 21.020,33.008 20.737,33.008 ZM20.225,29.653 L16.024,29.653 L16.024,32.058 L20.225,32.058 L20.225,29.653 ZM20.737,27.534 L15.512,27.534 C15.229,27.534 15.000,27.322 15.000,27.059 L15.000,23.704 C15.000,23.442 15.229,23.230 15.512,23.230 L20.737,23.230 C21.020,23.230 21.249,23.442 21.249,23.704 L21.249,27.059 C21.249,27.322 21.020,27.534 20.737,27.534 ZM20.225,24.179 L16.024,24.179 L16.024,26.584 L20.225,26.584 L20.225,24.179 ZM20.737,22.308 L15.512,22.308 C15.229,22.308 15.000,22.096 15.000,21.833 L15.000,18.479 C15.000,18.217 15.229,18.004 15.512,18.004 L20.737,18.004 C21.020,18.004 21.249,18.217 21.249,18.479 L21.249,21.833 C21.249,22.096 21.020,22.308 20.737,22.308 ZM20.225,18.954 L16.024,18.954 L16.024,21.359 L20.225,21.359 L20.225,18.954 Z" class="cls-1"/>
</svg>
